<?xml version="1.0" encoding="UTF-8" standalone="no"?>
<svg
   width="1440"
   height="931"
   fill="none"
   version="1.1"
   id="svg129"
   sodipodi:docname="background.svg"
   inkscape:version="1.4 (e7c3feb1, 2024-10-09)"
   xmlns:inkscape="http://www.inkscape.org/namespaces/inkscape"
   xmlns:sodipodi="http://sodipodi.sourceforge.net/DTD/sodipodi-0.dtd"
   xmlns="http://www.w3.org/2000/svg"
   xmlns:svg="http://www.w3.org/2000/svg">
  <sodipodi:namedview
     id="namedview129"
     pagecolor="#ffffff"
     bordercolor="#000000"
     borderopacity="0.25"
     inkscape:showpageshadow="2"
     inkscape:pageopacity="0.0"
     inkscape:pagecheckerboard="0"
     inkscape:deskcolor="#d1d1d1"
     inkscape:zoom="0.67635119"
     inkscape:cx="699.34083"
     inkscape:cy="529.31082"
     inkscape:window-width="1632"
     inkscape:window-height="933"
     inkscape:window-x="0"
     inkscape:window-y="38"
     inkscape:window-maximized="0"
     inkscape:current-layer="g71" />
  <g
     clip-path="url(#a)"
     id="g71">
    <path
       fill="url(#b)"
       fill-rule="evenodd"
       d="M-204-660h1854V994h-634.98c79.65-36.556 148.34-87.604 200.95-148.87l-34.42-19.563C1113.31 902.85 1016.6 962.831 902.63 994H749.779c287.761-11.34 516.791-204.565 516.791-441.268 0-243.996-243.36-441.794-543.553-441.794S179.469 308.736 179.469 552.732c0 236.703 229.024 429.928 516.787 441.268H543.399c-113.976-31.17-210.68-91.152-278.928-168.438l-34.412 19.563C282.663 906.393 351.36 957.443 431.013 994H-204zM211.626 822.372l34.103-19.387c-56.854-72.958-89.447-159.233-89.447-250.252 0-93.593 34.462-182.17 94.328-256.409l-34.175-19.429c-62.465 79.233-98.794 174.006-98.794 275.838 0 99.19 34.469 191.682 93.985 269.639m23.64-568.002 34.513 19.621C372.017 161.94 534.861 87.754 723.015 87.754c188.15 0 350.995 74.184 453.235 186.231l34.51-19.62C1100.54 129.88 923.116 49.113 723.015 49.113c-200.105 0-377.533 80.769-487.749 205.257m994.324 22.52-34.17 19.429c59.86 74.24 94.33 162.819 94.33 256.414 0 91.021-32.6 177.298-89.45 250.257l34.1 19.388c59.52-77.958 93.99-170.453 93.99-269.645 0-101.834-36.33-196.609-98.8-275.843"
       clip-rule="evenodd"
       id="path1" />
    <path
       fill="url(#c)"
       fill-rule="evenodd"
       d="M716-282.998c564.07 0 1021 376.477 1021 840.499C1737 1021.52 1280.07 1398 716 1398c-564.073 0-1021-376.48-1021-840.499 0-464.022 456.927-840.499 1021-840.499m0-1c564.44 0 1022 376.752 1022 841.499C1738 1022.25 1280.44 1399 716 1399c-564.435 0-1022-376.75-1022-841.499 0-464.747 457.565-841.499 1022-841.499m11.943 73.547c515.417 0 932.897 343.999 932.897 767.956 0 423.958-417.48 767.955-932.897 767.955-515.415 0-932.896-343.997-932.896-767.954 0-423.958 417.481-767.957 932.896-767.957m0-1c515.777 0 933.897 344.274 933.897 768.956s-418.12 768.955-933.897 768.955c-515.776 0-933.896-344.272-933.896-768.954 0-424.683 418.12-768.957 933.896-768.957M1548.7 557.501c0-372.966-367.28-675.629-820.763-675.629-453.487 0-820.765 302.663-820.765 675.629S274.45 1233.13 727.937 1233.13c453.483 0 820.763-302.663 820.763-675.629m1 0c0-373.692-367.91-676.629-821.763-676.629-453.848 0-821.765 302.937-821.765 676.629s367.917 676.629 821.765 676.629c453.853 0 821.763-302.937 821.763-676.629M727.942-25.134c391.118 0 707.828 261.03 707.828 582.642 0 321.611-316.71 582.642-707.828 582.642-391.116 0-707.833-261.031-707.833-582.642S336.826-25.134 727.942-25.134m0-1c391.478 0 708.828 261.305 708.828 583.642 0 322.336-317.35 583.642-708.828 583.642S19.109 879.844 19.109 557.508 336.464-26.134 727.942-26.134"
       clip-rule="evenodd"
       id="path2" />
    <path
       fill="url(#d)"
       d="m482.883 802-127.309 4.348a16 16 0 0 0-7.568 2.2L179 907.997h172.51z"
       id="path3" />
    <path
       fill="#B5F6FF"
       d="M347.619 808.06a16 16 0 0 1 7.568-2.201l127.309-4.347-4.414 3.561-121.527 4.785a16 16 0 0 0-6.722 1.776l-68.56 35.466z"
       id="path4" />
    <path
       fill="#000C2A"
       d="M295.516 880.158a6 6 0 0 0 3.577-1.182l70.192-52.106c3.095-2.297 1.47-7.212-2.384-7.212h-6.28c-.733 0-1.452.202-2.079.582L266.1 876.449c-1.728 1.051-.983 3.709 1.039 3.709z"
       id="path5" />
    <path
       stroke="#000C2A"
       d="M296.187 888.498c1.182 0 2.332-.38 3.28-1.085l78.295-58.174c2.635-1.958 1.368-6.139-1.91-6.305l-27.128-1.373a3.5 3.5 0 0 0-2.023.522L244.22 885.724c-1.282.796-.718 2.774.792 2.774z"
       id="path6" />
    <path
       fill="#000C2A"
       d="M322.5 861.498H298l49.431-36.5h10.57v4z"
       id="path7" />
    <path
       fill="url(#e)"
       d="m317.602 859.498-15.602-1 45.431-33.5h10.57z"
       id="path8" />
    <path
       fill="#000C2A"
       d="M327.278 817.092a7 7 0 0 1 3.758-1.094h44.923c7.003 0 9.667 9.146 3.758 12.906a7 7 0 0 1-3.758 1.094h-44.923c-7.003 0-9.666-9.146-3.758-12.906"
       id="path9" />
    <path
       fill="url(#f)"
       d="M331.036 815.998c-1.331 0-2.635.38-3.758 1.094-2.398 1.526-3.384 3.939-3.241 6.268.006-1.485.506-2.902 1.463-3.86h46.496s-2.965 8.05 2.806 10.498h1.157c1.331 0 2.635-.38 3.758-1.094 5.909-3.76 3.245-12.906-3.758-12.906z"
       id="path10" />
    <path
       fill="url(#g)"
       d="M485.648 753.712a51.53 51.53 0 0 1 31.404-10.677h409.293a51.52 51.52 0 0 1 31.465 10.724l404.06 311.631H80.281z"
       id="path11" />
    <path
       fill="#39E7FF"
       d="M937.447 913.016c-.38 0-.77-.006-1.16-.023-11.46-.419-22.62-6.92-24.88-14.493-1.22-4.076.33-7.842 4.25-10.347 3.21-2.041 7.75-3.067 12.81-2.884 11.46.418 22.62 6.92 24.88 14.493 1.22 4.076-.33 7.848-4.25 10.347-2.96 1.886-7.07 2.907-11.66 2.907zm-10.11-26.618c-4.02 0-7.61.883-10.18 2.523-3.51 2.236-4.88 5.658-3.77 9.384 2.11 7.08 12.45 13.157 23.04 13.541 4.45.161 8.41-.728 11.2-2.505 3.51-2.236 4.88-5.658 3.77-9.385-2.11-7.08-12.45-13.156-23.04-13.54q-.51-.018-1.02-.018"
       id="path12" />
    <path
       fill="#FF720E"
       d="M919.414 885.981c.82 2.614 5 4.89 9.34 5.085s7.2-1.771 6.38-4.386c-.82-2.614-5-4.89-9.34-5.085s-7.2 1.772-6.38 4.386"
       id="path13" />
    <path
       fill="#39E7FF"
       d="M929.335 891.651c-.22 0-.44 0-.66-.018-4.76-.212-9.36-2.705-10.25-5.555-.46-1.479.14-2.872 1.64-3.829 1.42-.9 3.47-1.342 5.8-1.233 4.76.212 9.36 2.706 10.25 5.555.46 1.479-.14 2.872-1.64 3.83-1.28.814-3.08 1.244-5.14 1.244zm-4.12-9.5c-1.48 0-2.77.304-3.66.872-1.1.699-1.52 1.714-1.16 2.855.74 2.373 4.52 4.443 8.43 4.615 1.69.068 3.17-.23 4.16-.86 1.1-.7 1.52-1.714 1.16-2.855-.74-2.374-4.52-4.443-8.43-4.615-.17-.006-.34-.012-.5-.012"
       id="path14" />
    <path
       fill="#FF720E"
       d="M931.812 911.325c.82 2.614 5 4.89 9.34 5.085s7.2-1.772 6.38-4.386-5-4.89-9.34-5.085-7.2 1.772-6.38 4.386"
       id="path15" />
    <path
       fill="#39E7FF"
       d="M941.741 917.001c-.22 0-.44 0-.66-.018-4.76-.212-9.36-2.705-10.25-5.555-.46-1.479.14-2.872 1.64-3.829 1.42-.894 3.48-1.336 5.8-1.233 4.76.212 9.36 2.706 10.25 5.555.46 1.479-.14 2.873-1.64 3.83-1.28.814-3.09 1.244-5.14 1.244zm-4.12-9.5c-1.48 0-2.77.304-3.66.872-1.1.699-1.52 1.714-1.16 2.855.74 2.373 4.52 4.443 8.43 4.615 1.69.074 3.17-.23 4.16-.86 1.1-.7 1.52-1.714 1.16-2.855-.74-2.374-4.52-4.443-8.43-4.615-.17-.006-.33-.012-.5-.012"
       id="path16" />
    <path
       fill="#0069FF"
       d="M939.612 899.395c.79 2.654-1.8 4.69-5.8 4.546-3.99-.143-7.87-2.413-8.67-5.073-.79-2.655 1.8-4.69 5.8-4.546 3.99.143 7.87 2.413 8.67 5.073"
       id="path17" />
    <path
       fill="#000C2A"
       fill-rule="evenodd"
       d="m739.914 784.5-2.5 56.5c.662 13.729 11.55 26.442 25.295 26.442H1027.1c11.74 0 16.81-15.442 9.81-25.942l-82.065-70.784c-7.13-6.548-13.251-12.216-22.931-12.216l-178 .752c-14.714 0-14.708 10.551-14 25.248m202.5-24.5 86.996 87.118c1.46.636-1.44 10.576-2.97 10.178l-39.26-10.178c-2.253 2.373-5.453 3.927-9.291 3.927H768.905c-2.848 0-5.499-.93-7.647-2.516l-11.616 7.623c-1.273.836-2.687-.84-1.649-1.954L744.914 841c.186 1.563-.684-1.331 0 0l2-50.5c-.562-4.738-2.401-18.482 1.089-21.138-.999-1.16-4.326-7.764-3.089-6.862l5.24-3a13 13 0 0 1 2.503-.242l169.257-.758z"
       clip-rule="evenodd"
       id="path18" />
    <path
       fill="#000C79"
       fill-rule="evenodd"
       d="m734.31 782.536 2.67 55.385c.661 13.729 11.985 24.521 25.73 24.521h264.39c11.74 0 17.36-14.426 8.71-22.367l-80.963-74.359a38.64 38.64 0 0 0-26.137-10.181H760.041c-14.714 0-26.439 12.304-25.731 27.001m206.412-20.351c1.316-.866 2.739.936 1.59 2.015l-7.832 7.357a13 13 0 0 1 3.138 2.341l49.416 50.233c2.798 2.845 3.915 6.375 3.697 9.765l36.509 15.973c1.45.635.7 2.825-.84 2.427l-39.257-10.178c-2.254 2.373-5.453 3.927-9.291 3.927H768.867c-2.847 0-5.499-.93-7.647-2.516l-11.616 7.623c-1.272.836-2.686-.84-1.649-1.954l9.451-10.151a12.9 12.9 0 0 1-1.329-4.365l-5.96-50.233c-.562-4.739 1.512-9.123 5.002-11.779l-7.153-8.308c-.999-1.16.498-2.783 1.735-1.88l10.704 7.811a13 13 0 0 1 2.502-.242h165.528q.17 0 .336.004z"
       clip-rule="evenodd"
       id="path19" />
    <path
       fill="url(#h)"
       fill-rule="evenodd"
       d="M734.312 782.536c-.709-14.697 11.419-25.036 26.133-25.036h168.031c9.68 0 19.243 1.668 26.372 8.216a38.64 38.64 0 0 0-26.137-10.181H760.042c-14.714 0-26.439 12.304-25.73 27.001m13.694-18.174 5.409 8.138c-3.49 2.656-5.062 7.262-4.5 12l6 50.5c0 1.905.786 2.48 1.523 3.019.392.287.771.565 1.009 1.028a12.9 12.9 0 0 1-1.33-4.365l-5.96-50.233c-.562-4.739 1.513-9.123 5.003-11.779zm1.639 86.79 11.77-6.152c.655 2.471 4.153 4.198 7 4.198h207.5c3.838 0 11.051-2.316 11.159-5.698l39.366 8.796-39.257-10.178c-2.253 2.373-5.453 3.927-9.291 3.927H768.908c-2.848 0-5.499-.93-7.647-2.516zm241.127-17.256c.042-.649.12-1.327.2-2.018.339-2.918.705-6.079-1.557-8.378l-52.5-52 5.438-7.3-7.833 7.357a12.9 12.9 0 0 1 3.138 2.341l49.416 50.233c2.798 2.845 3.915 6.375 3.698 9.765"
       clip-rule="evenodd"
       id="path20" />
    <path
       fill="#39E7FF"
       d="m763.296 826.08-5.422-35.77c-1.181-7.793 4.852-14.81 12.735-14.81h153.982c3.409 0 6.679 1.351 9.093 3.758l44.719 44.571c4.881 4.865 1.436 13.202-5.456 13.202H776.03a12.88 12.88 0 0 1-12.734-10.951"
       id="path21" />
    <rect
       width="62.044"
       height="2.6"
       fill="#4ABEFF"
       rx="1.3"
       transform="matrix(-1 0 0 1 966.047 820.201)"
       id="rect21" />
    <rect
       width="60.956"
       height="2.6"
       fill="#4ABEFF"
       rx="1.3"
       transform="matrix(-1 0 0 1 964.953 815)"
       id="rect22" />
    <rect
       width="45.717"
       height="2.6"
       fill="#4ABEFF"
       rx="1.3"
       transform="matrix(-1 0 0 1 967.133 825.402)"
       id="rect23" />
    <rect
       width="39.311"
       height="1.647"
       x="766.984"
       y="792"
       fill="#0069FF"
       rx=".824"
       id="rect24" />
    <rect
       width="39"
       height="3"
       x="765"
       y="786"
       fill="#000C79"
       rx="1.5"
       id="rect25" />
    <rect
       width="28.966"
       height="1.647"
       x="769"
       y="796"
       fill="#0069FF"
       rx=".824"
       id="rect26" />
    <g
       clip-path="url(#i)"
       id="g35">
      <path
         fill="#B5F6FF"
         stroke="#000C79"
         d="M896.5 806c0 6.973-4.021 13.336-10.625 17.976-6.601 4.639-15.748 7.524-25.875 7.524s-19.274-2.885-25.875-7.524c-6.604-4.64-10.625-11.003-10.625-17.976s4.021-13.336 10.625-17.976c6.601-4.639 15.748-7.524 25.875-7.524s19.274 2.885 25.875 7.524c6.604 4.64 10.625 11.003 10.625 17.976Z"
         id="path26" />
      <path
         fill="#000C79"
         d="M860.001 826.944c16.461 0 29.805-9.378 29.805-20.945s-13.344-20.944-29.805-20.944-29.806 9.377-29.806 20.944 13.345 20.945 29.806 20.945"
         id="path27" />
      <path
         fill="#0069FF"
         d="M859.997 808.167c-1.697 0-3.083-.973-3.083-2.166s1.386-2.167 3.083-2.167 3.084.974 3.084 2.167-1.386 2.166-3.084 2.166m0-4.085c-1.507 0-2.743.859-2.743 1.928s1.222 1.928 2.743 1.928c1.522 0 2.744-.859 2.744-1.928s-1.222-1.928-2.744-1.928"
         id="path28" />
      <path
         fill="#0069FF"
         d="M859.999 811.056c-3.965 0-7.194-2.269-7.194-5.055 0-2.787 3.229-5.056 7.194-5.056 3.966 0 7.195 2.269 7.195 5.056s-3.229 5.055-7.195 5.055m0-9.904c-3.794 0-6.887 2.174-6.887 4.84s3.093 4.84 6.887 4.84 6.888-2.174 6.888-4.84-3.094-4.84-6.888-4.84"
         id="path29" />
      <path
         fill="#0069FF"
         d="M860.511 814.667c-7.089 0-12.847-4.046-12.847-9.028 0-4.981 5.758-9.028 12.847-9.028s12.848 4.047 12.848 9.028-5.759 9.028-12.848 9.028m0-17.831c-6.91 0-12.527 3.948-12.527 8.803s5.617 8.803 12.527 8.803 12.528-3.947 12.528-8.803c0-4.855-5.618-8.803-12.528-8.803"
         id="path30" />
      <path
         fill="#0069FF"
         d="M860.514 819.002c-10.494 0-19.014-5.997-19.014-13.362 0-7.364 8.533-13.361 19.014-13.361s19.014 5.997 19.014 13.361-8.533 13.362-19.014 13.362m0-26.507c-10.314 0-18.694 5.898-18.694 13.136 0 7.239 8.393 13.136 18.694 13.136s18.693-5.897 18.693-13.136-8.392-13.136-18.693-13.136"
         id="path31" />
      <path
         fill="#0069FF"
         d="M859.999 824.047c-14.165 0-25.694-8.101-25.694-18.055s11.529-18.047 25.694-18.047c14.166 0 25.695 8.102 25.695 18.056s-11.529 18.055-25.695 18.055zm0-35.875c-13.984 0-25.371 7.993-25.371 17.829s11.374 17.828 25.371 17.828c13.998 0 25.371-7.992 25.371-17.828s-11.373-17.829-25.371-17.829"
         id="path32" />
      <path
         fill="#FF720E"
         d="M842.524 811.778c1.136 0 2.056-.647 2.056-1.445s-.92-1.444-2.056-1.444c-1.135 0-2.055.646-2.055 1.444s.92 1.445 2.055 1.445m32.891 3.611c1.135 0 2.055-.647 2.055-1.445 0-.797-.92-1.444-2.055-1.444s-2.056.647-2.056 1.444c0 .798.921 1.445 2.056 1.445m-21.586-20.945c1.135 0 2.056-.647 2.056-1.445s-.921-1.444-2.056-1.444-2.056.646-2.056 1.444.921 1.445 2.056 1.445"
         id="path33" />
      <path
         fill="url(#j)"
         d="M872.333 786.86c-4.625-1.444-7.524-1.805-12.333-1.805v20.944z"
         id="path34" />
      <path
         fill="#F4F9FF"
         d="m860 805.998 12.181-19.187 1.18.41z"
         id="path35" />
    </g>
    <path
       fill="url(#k)"
       d="m763.296 826.08-5.422-35.77c-1.181-7.793 4.852-14.81 12.735-14.81h153.982c3.409 0 6.679 1.351 9.093 3.758l44.719 44.571c4.881 4.865 1.436 13.202-5.456 13.202H776.03a12.88 12.88 0 0 1-12.734-10.951"
       id="path36" />
    <path
       fill="url(#l)"
       fill-rule="evenodd"
       d="M904.69 780.348h-25.927l-61.732 54.097h25.928l30.865-27.049zm14.816 0h-3.704l-61.732 54.097h3.704z"
       clip-rule="evenodd"
       id="path37" />
    <path
       fill="#000C2A"
       fill-rule="evenodd"
       d="M704.5 784.5 707 841c-.662 13.729-11.55 26.442-25.295 26.442H417.314c-11.741 0-16.811-15.442-9.809-25.942l82.064-70.784c7.13-6.548 13.251-12.216 22.931-12.216l178 .752c14.714 0 14.708 10.551 14 25.248M502 760l-87 87.118c-1.453.636 1.441 10.576 2.976 10.178l39.258-10.178c2.254 2.373 5.453 3.927 9.291 3.927h208.984c2.848 0 5.499-.93 7.647-2.516l11.616 7.623c1.273.836 2.687-.84 1.649-1.954L699.5 841c-.185 1.563.684-1.331 0 0l-2-50.5c.562-4.738 2.401-18.482-1.089-21.138.999-1.16 4.326-7.764 3.089-6.862l-5.24-3a13 13 0 0 0-2.503-.242L522.5 758.5z"
       clip-rule="evenodd"
       id="path38" />
    <path
       fill="#000C79"
       fill-rule="evenodd"
       d="m710.104 782.536-2.67 55.385c-.661 13.729-11.985 24.521-25.73 24.521H417.312c-11.741 0-17.359-14.426-8.712-22.367l80.967-74.359a38.64 38.64 0 0 1 26.137-10.181h168.669c14.714 0 26.439 12.304 25.731 27.001m-206.412-20.351c-1.316-.866-2.739.936-1.59 2.015l7.832 7.357a12.9 12.9 0 0 0-3.137 2.341l-49.417 50.233c-2.798 2.845-3.915 6.375-3.697 9.765l-36.509 15.973c-1.453.635-.696 2.825.84 2.427l39.258-10.178c2.253 2.373 5.453 3.927 9.29 3.927h208.985c2.847 0 5.499-.93 7.647-2.516l11.616 7.623c1.272.836 2.686-.84 1.649-1.954l-9.451-10.151a12.9 12.9 0 0 0 1.329-4.365l5.96-50.233c.562-4.739-1.512-9.123-5.002-11.779l7.153-8.308c.999-1.16-.498-2.783-1.735-1.88l-10.704 7.811a13 13 0 0 0-2.502-.242H515.979q-.168 0-.336.004z"
       clip-rule="evenodd"
       id="path39" />
    <path
       fill="url(#m)"
       fill-rule="evenodd"
       d="M710.102 782.536c.709-14.697-11.419-25.036-26.133-25.036H515.938c-9.68 0-19.242 1.668-26.372 8.216a38.64 38.64 0 0 1 26.137-10.181h168.669c14.714 0 26.439 12.304 25.73 27.001m-13.694-18.174-5.409 8.138c3.49 2.656 5.062 7.262 4.5 12l-6 50.5c0 1.905-.786 2.48-1.522 3.019-.393.287-.772.565-1.01 1.028a12.8 12.8 0 0 0 1.33-4.365l5.96-50.233c.562-4.739-1.513-9.123-5.003-11.779zm-1.639 86.79L682.999 845c-.655 2.471-4.153 4.198-7 4.198h-207.5c-3.838 0-11.051-2.316-11.159-5.698l-39.367 8.796 39.258-10.178c2.254 2.373 5.453 3.927 9.291 3.927h208.984c2.848 0 5.499-.93 7.647-2.516zm-241.127-17.256c-.041-.649-.12-1.327-.2-2.018-.339-2.918-.705-6.079 1.557-8.378l52.5-52-5.438-7.3 7.833 7.357a12.9 12.9 0 0 0-3.138 2.341l-49.416 50.233c-2.798 2.845-3.915 6.375-3.698 9.765"
       clip-rule="evenodd"
       id="path40" />
    <path
       fill="#39E7FF"
       d="m681.119 826.08 5.421-35.77c1.181-7.793-4.852-14.81-12.735-14.81H519.823a12.88 12.88 0 0 0-9.093 3.758l-44.719 44.571c-4.881 4.865-1.435 13.202 5.456 13.202h196.917c6.368 0 11.78-4.654 12.735-10.951"
       id="path41" />
    <path
       fill="#FF720E"
       fill-rule="evenodd"
       d="m527.045 804-3.605-9.99-14.495 9.99H502l25.045-17L534 804zM491 821l29.995-20L523 821z"
       clip-rule="evenodd"
       id="path42" />
    <path
       fill="url(#n)"
       d="m 691.979,809.835 c -24.321,4.576 -38.393,-0.141 -51.402,-5.346 18.071,-7.185 36.926,-4.209 47.707,-1.326 l -1.341,-2.425 c -11.862,-2.865 -30.97,-5.169 -49.158,2.627 l -0.051,-0.018 c -9.811,-3.978 -19.074,-7.729 -31.72,-7.246 -11.541,0.434 -20.18,4.081 -29.13,8.095 -9.483,-3.195 -19.294,-6.476 -29.578,-8.107 -22.398,-3.562 -38.317,2.236 -48.306,8.431 l 0.801,2.04 a 55,55 0 0 1 2.759,-1.686 c 12.629,-7.203 27.485,-9.512 44.155,-6.861 9.424,1.497 18.552,4.454 27.393,7.423 -9.997,4.484 -20.534,8.932 -36.099,9.518 -13.894,0.526 -26.844,-2.028 -36.866,-4.985 l 0.936,2.389 c 10.039,2.798 22.618,5.083 36.074,4.57 16.982,-0.642 28.059,-5.621 38.773,-10.429 l 0.143,-0.067 c 12.444,4.185 24.448,8.113 36.082,7.673 6.572,-0.25 13.017,-1.888 19.361,-5.657 a 56,56 0 0 1 5.34,-2.792 c 10.427,4.203 21.994,8.559 39.119,7.911 4.859,-0.183 10.174,-0.775 16.029,-1.881 z m -61.196,-2.915 c -15.827,9.403 -32.185,4.546 -50.93,-1.728 8.107,-3.599 16.088,-6.733 26.304,-7.124 11.339,-0.428 20.003,2.859 29.004,6.494 a 63,63 0 0 0 -4.378,2.358"
       id="path43"
       style="display:none" />
    <path
       fill="url(#o)"
       d="m681.119 826.08 5.421-35.77c1.181-7.793-4.852-14.81-12.735-14.81H519.823a12.88 12.88 0 0 0-9.093 3.758l-44.719 44.571c-4.881 4.865-1.435 13.202 5.456 13.202h196.917c6.368 0 11.78-4.654 12.735-10.951"
       id="path44" />
    <g
       id="g2"
       transform="matrix(1.0929663,0,0,1.0929663,-340.64694,147.03512)">
      <path
         fill="url(#s)"
         fill-rule="evenodd"
         d="m 890.25771,596.66011 a 3.436087,3.436087 0 0 1 0.99198,-1.41967 l 1.63845,1.84404 a 1.5530337,1.5530337 0 0 0 -0.35524,0.54608 l -3.61862,9.36634 a 1.5569162,1.5569162 0 0 0 0.0894,1.31853 l -2.38197,2.08456 c -0.55132,-0.86096 -0.72413,-1.96672 -0.32618,-3.04007 z m 3.25359,0.0465 -1.66562,-1.87374 a 3.416674,3.416674 0 0 1 1.63067,-0.41233 h 14.86447 c 0.78232,0 1.50644,0.26304 2.08303,0.70566 l -1.85397,1.746 a 1.5530337,1.5530337 0 0 0 -0.83281,-0.24033 h -13.7482 c -0.16505,0 -0.32618,0.026 -0.47757,0.0747 m 15.55946,0.67576 1.87528,-1.76366 a 3.416674,3.416674 0 0 1 0.82503,2.23287 v 10.69982 c 0,0.8167 -0.28535,1.56682 -0.76292,2.156 l -2.00147,-2.2387 a 1.5627402,1.5627402 0 0 0 0.29117,-0.90949 v -9.36635 c 0,-0.29682 -0.0835,-0.57423 -0.22709,-0.81049 m -0.60375,11.5571 2.0364,2.27538 a 3.416674,3.416674 0 0 1 -2.16259,0.76759 h -18.82859 c -0.97644,0 -1.83061,-0.39835 -2.4441,-1.02248 l 2.41692,-2.11406 a 1.5472098,1.5472098 0 0 0 0.88526,0.2743 h 17.36676 c 0.26405,0 0.51251,-0.0654 0.72994,-0.18073 m -0.72994,-11.59204 h -13.7482 c -0.34943,0 -0.66392,0.2149 -0.7901,0.54084 l -3.61666,9.36634 c -0.21351,0.55405 0.19411,1.15022 0.7882,1.15022 h 17.36676 c 0.46593,0 0.84639,-0.37855 0.84639,-0.84562 v -9.36635 a 0.84698571,0.84698571 0 0 0 -0.84639,-0.84543 m -11.4303,5.46085 c -1.16088,0.36011 -2.56446,0.79477 -2.56446,2.0997 v 0.77516 h 5.84913 v -1.35483 h -3.71176 c 0.12619,-0.24751 0.63675,-0.38787 1.24435,-0.55462 1.1085,-0.30479 2.54116,-0.69829 2.54116,-1.99662 0,-1.08363 -1.04443,-1.62545 -2.70033,-1.62545 -1.64817,0 -2.99539,0.55677 -3.13908,2.03195 h 1.84425 c 0,-0.60219 0.48142,-0.82795 1.24821,-0.82795 0.68532,0 0.91243,0.18073 0.91243,0.51929 0,0.46144 -0.70277,0.67867 -1.5239,0.93337 m 4.09998,1.08363 c 0.0913,1.34707 1.42298,1.94168 3.07888,1.94168 1.8656,0 2.86731,-0.7903 2.86731,-2.03952 0,-1.11391 -0.79787,-1.76114 -2.16064,-1.76114 -0.75906,0 -1.3007,0.15821 -1.70833,0.34633 l 0.11254,-0.81282 h 3.31962 v -1.29446 h -4.74835 l -0.44459,2.85972 1.64041,0.31624 c 0.42127,-0.30867 0.72988,-0.41408 1.19001,-0.41408 0.62511,0 0.93959,0.27101 0.93959,0.73012 0,0.52687 -0.39801,0.78273 -1.0755,0.78273 -0.6775,0 -1.06187,-0.24092 -1.15116,-0.6548 z"
         clip-rule="evenodd"
         id="path30-4"
         style="fill:url(#s-6);stroke-width:0.194129" />
      <path
         fill="#000c2a"
         d="m 880.76089,608.55965 q -1.54957,4.14271 -4.73367,4.14271 -0.59166,0 -1.02013,-0.10192 v -2.02049 q 0.32652,0.0817 0.69361,0.0817 1.85704,0 2.63165,-2.02031 l -4.08024,-10.14247 h 2.71373 l 1.20342,3.30602 c 0.36883,0.97957 0.66006,1.80268 0.87748,2.46933 0.23101,0.66663 0.37465,1.08828 0.42899,1.26514 l 0.0622,0.28575 q 0.20379,-0.7144 1.30451,-4.02022 l 1.08132,-3.30602 h 2.57218 z"
         id="path31-1"
         style="stroke-width:0.194129" />
      <path
         fill="#000c2a"
         d="m 874.57224,603.64701 c 0,1.56468 -0.44212,2.85034 -1.32627,3.85696 -0.87075,1.00675 -2.09507,1.51013 -3.67296,1.51013 -1.56442,0 -2.78873,-0.48973 -3.6729,-1.46917 -0.87063,-0.9797 -1.30595,-2.23138 -1.30595,-3.75504 0,-1.57814 0.4557,-2.87738 1.36709,-3.89773 0.9115,-1.03406 2.11544,-1.55109 3.61176,-1.55109 1.59159,0 2.8227,0.50337 3.69334,1.51013 0.87057,0.99317 1.30589,2.25844 1.30589,3.79581 m -7.407,0.0614 c 0,0.95226 0.21081,1.74812 0.63249,2.38759 0.42161,0.63946 1.02018,0.95919 1.79566,0.95919 0.80271,0 1.40801,-0.31294 1.8161,-0.93881 0.40809,-0.62587 0.6121,-1.42173 0.6121,-2.38759 0,-0.99317 -0.19722,-1.80269 -0.59173,-2.42856 -0.39443,-0.63947 -1.01339,-0.95919 -1.85685,-0.95919 -0.77547,0 -1.37405,0.31972 -1.79566,0.95919 -0.40809,0.63946 -0.61211,1.44218 -0.61211,2.40818 m -3.75331,5.14403 h -2.44876 v -14.42788 h 2.44876 z m -11.19272,3.89559 h -2.44869 V 598.5038 h 2.44869 v 1.59167 c 0.73461,-1.15637 1.78887,-1.73455 3.16281,-1.73455 1.3467,0 2.41455,0.48299 3.2035,1.44898 0.80265,0.96586 1.204,2.23792 1.204,3.81619 0,1.55096 -0.40135,2.83662 -1.204,3.85696 -0.78895,1.00676 -1.86359,1.51013 -3.22394,1.51013 -1.38763,0 -2.43505,-0.56459 -3.14237,-1.69378 z m 0.77536,-11.50973 c -0.51689,0.53063 -0.77536,1.31969 -0.77536,2.36721 0,1.04752 0.25168,1.85704 0.75498,2.42856 0.5033,0.57152 1.10867,0.85721 1.8161,0.85708 0.7346,0 1.33312,-0.2789 1.79566,-0.83669 0.46243,-0.57139 0.69367,-1.36726 0.69367,-2.3876 0,-1.02034 -0.23124,-1.80942 -0.69367,-2.36721 -0.46254,-0.57151 -1.04747,-0.85727 -1.7549,-0.85727 -0.70743,0 -1.31954,0.2653 -1.83648,0.79592 m -8.87424,7.83001 c -1.01334,0 -1.90314,-0.22299 -2.66946,-0.66897 -0.76626,-0.44598 -1.3657,-1.06467 -1.7982,-1.85607 -0.42645,-0.79139 -0.63967,-1.70219 -0.63967,-2.73237 0,-1.11171 0.21011,-2.07582 0.63035,-2.89233 0.42023,-0.82285 1.00419,-1.46043 1.7518,-1.91275 0.74778,-0.45219 1.613,-0.67829 2.59554,-0.67829 1.03821,0 1.91874,0.2481 2.64172,0.74429 0.72913,0.48999 1.26985,1.18406 1.6221,2.08223 0.3523,0.89818 0.48517,1.95656 0.39859,3.17517 h -2.21544 v -0.82912 c -0.006,-1.10563 -0.19774,-1.91275 -0.57463,-2.42137 -0.377,-0.50888 -0.97022,-0.76332 -1.77977,-0.76332 -0.91444,0 -1.59418,0.289 -2.03911,0.86699 -0.44493,0.57151 -0.66742,1.41002 -0.66742,2.51552 0,1.03005 0.22249,1.82773 0.66742,2.39303 0.44493,0.5653 1.09376,0.84796 1.94654,0.84796 0.55004,0 1.02273,-0.1225 1.41809,-0.36749 0.40176,-0.25107 0.71071,-0.61221 0.92699,-1.08344 l 2.20605,0.67848 c -0.38305,0.91694 -0.97626,1.62985 -1.77955,2.13873 -0.79723,0.50862 -1.67788,0.76299 -2.64194,0.76312 m -3.4481,-4.73909 v -1.71473 h 6.88711 v 1.71473 z m -9.48669,4.53079 h -4.48907 v -13.75464 h 4.48907 c 2.05426,0 3.73432,0.63267 5.04016,1.898 1.30583,1.26534 1.95881,2.86392 1.95897,4.79577 0,2.10877 -0.63259,3.81613 -1.89783,5.1221 -1.26508,1.29251 -2.96553,1.93877 -5.1013,1.93877 m -0.0816,-11.59145 h -1.77528 v 9.44865 h 1.8161 c 1.44198,0 2.53706,-0.44216 3.28524,-1.32648 0.74814,-0.89778 1.12226,-2.09498 1.12226,-3.59159 0,-1.31969 -0.40129,-2.40131 -1.20383,-3.24486 -0.78906,-0.85715 -1.87055,-1.28572 -3.24449,-1.28572"
         id="path32-7"
         style="display:inline;stroke-width:0.194129"
         sodipodi:nodetypes="ccscscscccsssscsccccccccccccscscscccssccscsccscsccscsccccscssscccccccccccccssccccccscscc" />
    </g>
    <path
       stroke="#B5F6FF"
       d="m668.668 815.855 2.344-17.239c1.052-7.732-4.959-14.616-12.763-14.616h-88.802c-3.651 0-7.13 1.549-9.573 4.262l-23.261 25.839c-4.478 4.973-.948 12.899 5.743 12.899h113.549a12.88 12.88 0 0 0 12.763-11.145Z"
       id="path45" />
    <path
       fill="url(#p)"
       fill-rule="evenodd"
       d="m 612.565,780.348 h -25.927 l -61.732,54.097 h 25.928 l 30.865,-27.049 z m 14.816,0 h -3.704 l -61.732,54.097 h 3.704 z"
       clip-rule="evenodd"
       id="path46"
       style="display:inline" />
    <path
       fill="#B5F6FF"
       d="M517.064 743.035a51.52 51.52 0 0 0-31.404 10.677l-66.715 51.296 67.432-46.173a51.5 51.5 0 0 1 29.108-9.011h412.437a51.5 51.5 0 0 1 29.162 9.048l67.126 46.091-66.388-51.204a51.52 51.52 0 0 0-31.465-10.724z"
       id="path47" />
    <path
       fill="url(#q)"
       d="m478.848 884-119.031.008c-8.429 0-14.157 1.492-24.917 8.992l-20.957 15.5h.003l209.055.5H544l5-21.5s-7.93-3.492-18.341-3.492h-51.811z"
       id="path48" />
    <path
       fill="#000C2A"
       d="M314 909h224v8H314z"
       id="path49" />
    <g
       filter="url(#r)"
       id="g50">
      <path
         fill="#FF720E"
         d="M440.854 893h-25.026c-2.022 0-3.583-1.067-3.313-2.268.224-.994 1.64-1.732 3.313-1.732h25.026c2.021 0 3.583 1.067 3.313 2.268-.225.994-1.64 1.732-3.313 1.732"
         id="path50" />
    </g>
    <g
       filter="url(#s)"
       id="g51">
      <path
         fill="#FF720E"
         d="M514.471 905h-25.026c-2.021 0-3.583-1.067-3.313-2.268.225-.994 1.64-1.732 3.313-1.732h25.026c2.021 0 3.583 1.067 3.313 2.268-.224.994-1.64 1.732-3.313 1.732"
         id="path51" />
    </g>
    <path
       fill="#000C2A"
       fill-rule="evenodd"
       d="M473.886 883.008h4v.008h65.466c3.892 0 6.754 3.648 5.828 7.428L545 907.5l-3.432 7.899a6 6 0 0 1-5.503 3.609H316.779c-5.666 0-6.23-11-2.032-14.194l12.792-9.155V895h.921l2.344-1.677q1.107-.813 2.135-1.572c7.313-5.398 11.833-8.735 19.518-8.735zM329.744 899l-11.178 8h58.147l.316-.347 6.972-7.653zm-13.702 12h60.466v4.008h-59.693a1 1 0 0 1-.096-.117c-.25-.345-.561-1.08-.676-2.192a8.5 8.5 0 0 1-.001-1.699m64.466 0v4.008h76.417V911zm80.417 0v4.008h75.14a2 2 0 0 0 1.834-1.203l1.219-2.805zm1.266-4 4.908-8h75.866l-1.769 7.218-.34.782zm.215-8-4.908 8h-75.374l7.288-8zm7.147-4h74.392l1.35-5.508a2 2 0 0 0-1.943-2.476h-68.901zm.21-7.992L464.86 895h-71.804l7.277-7.987zm-117.306.008 42.464-.003-7.276 7.987h-52.367c7.477-5.498 10.917-7.984 17.179-7.984"
       clip-rule="evenodd"
       id="path52" />
    <path
       fill="url(#t)"
       d="m555.5 892.721-5.043 10.67c-2.18 7.66 3.58 15.28 11.54 15.28h42.94l290.563-11.17s-5.5-19.832-13.5-22.5-316.963-1-316.963-1c-5.36 0-8.077 3.56-9.537 8.72"
       id="path53" />
    <path
       fill="#000C79"
       d="m611.117 884-6.617 24.5.438 10.17h59.349l1.335-17.335L666.958 884z"
       id="path54" />
    <path
       fill="#FF720E"
       d="M834.427 884h-55.81l3.87 34.67h58.87z"
       id="path55" />
    <path
       fill="#000C2A"
       d="M550 909h346c0 5.523-4.477 10-10 10H560c-5.523 0-10-4.477-10-10"
       id="path56" />
    <path
       fill="url(#u)"
       fill-rule="evenodd"
       d="M562.007 919.67h321.484c4.11 0 7.89-1.89 10.37-5.17s3.25-7.43 2.13-11.39l-5.03-10.67c-1.91-5.44-8.72-9.44-14.5-9.44H567.037c-5.78 0-9.537 3.5-12.5 9.44l-5.03 10.67c-1.13 3.96-.35 8.1 2.13 11.39s6.26 5.17 10.37 5.17M839.008 907l-5.397-22h-53.859l3.458 22zm0 2H783.21v8.67h55.798zm-57.832-2-3.46-22H723.82l.426 22zm-56.892 2h56.892v8.67h-56.724zm-2.042-2-.431-22h-53.915l-3.698 22zm-58.199 2h58.238l.17 8.67h-58.253zm-1.86-2 3.697-22h-53.93l-1.082 3.527L606.024 907zm-56.683 2h56.529l.154 8.67H605.5zm-2 0h-52.251a11 11 0 0 0 1.978 4.3c2.1 2.78 5.3 4.37 8.78 4.37H603.5zm.536-2h-53.03a11.1 11.1 0 0 1 .421-3.34l5.03-10.67c2.543-4.99 5.69-7.99 10.58-7.99h42.799l-.508 2.236zm237.022 2h53.205a11 11 0 0 1-1.982 4.3c-2.1 2.78-5.3 4.37-8.78 4.37h-42.443zm53.446-2h-53.446l-5.397-22h40.81c4.89 0 10.029 3 12.58 7.99l5.03 10.67c.314 1.107.453 2.231.423 3.34"
       clip-rule="evenodd"
       id="path57" />
    <path
       fill="url(#v)"
       d="M956 884.006h111.53c8.43 0 14.16 1.492 24.92 8.992l20.96 15.5s12.53 0 0 0L970.5 907z"
       id="path58" />
    <path
       fill="#000C2A"
       d="M1113.35 908.998H973v8h140.35z"
       id="path59" />
    <g
       filter="url(#w)"
       id="g60">
      <path
         fill="#FF720E"
         d="M986.498 892.998h25.022c2.03 0 3.59-1.067 3.32-2.268-.23-.994-1.64-1.732-3.32-1.732h-25.022c-2.022 0-3.583 1.067-3.313 2.268.224.994 1.639 1.732 3.313 1.732"
         id="path60" />
    </g>
    <g
       filter="url(#x)"
       id="g61">
      <path
         fill="#FF720E"
         d="M1064.34 904.998h25.03c2.02 0 3.58-1.067 3.31-2.268-.22-.994-1.64-1.732-3.31-1.732h-25.03c-2.02 0-3.58 1.067-3.31 2.268.22.994 1.64 1.732 3.31 1.732"
         id="path61" />
    </g>
    <path
       fill="#000C2A"
       fill-rule="evenodd"
       d="m1112.6 904.813-12.79-9.155V895h-.92l-2.34-1.678c-.74-.541-1.45-1.065-2.14-1.572-7.31-5.398-11.83-8.734-19.52-8.734H954l2.251 4 14.085 25.027a6 6 0 0 0 5.055 3.055l71.449 2.066v1.336h4v-1.22l59.73 1.727c5.67 0 6.23-11 2.03-14.194m-65.76 8.35-71.333-2.063a2 2 0 0 1-.569-.1h71.902zm4-2.163v2.278l59.7 1.726q.03-.034.09-.114c.25-.345.56-1.08.68-2.192.06-.562.06-1.14 0-1.698zm-5.61-4h-73.142l-4.503-8h70.355zm-1.88-8 6.97 7.653.32.347h58.15l-11.18-8zm-9.05-4h-68.966l-4.493-7.984h66.179zm-1.87-7.984 7.28 7.984h52.36c-7.47-5.498-10.91-7.984-17.18-7.984z"
       clip-rule="evenodd"
       id="path62" />
    <path
       fill="url(#y)"
       d="m1305.2 760.479-10.3-1.389-65.97 52.056a15.48 15.48 0 0 1-9.61 3.322l-294.086-.637v4.513a5.15 5.15 0 0 0 5.152 5.152h301.844c3.47 0 6.83-1.166 9.56-3.311l61.45-48.364a5.15 5.15 0 0 0 1.96-4.049z"
       id="path63" />
    <path
       fill="url(#z)"
       d="M1304.16 761.768c1.94-1.501.88-4.616-1.58-4.616h-230.42c-3.89 0-7.75.736-11.37 2.168l-134.75 53.308c-1.321.523-.947 2.486.474 2.486h303.216c3.42 0 6.74-1.132 9.45-3.218z"
       id="path64" />
    <path
       fill="#B5F6FF"
       d="m1304.83 758.441-230.66 1c-3.51 0-7 .6-10.32 1.773l-50.62 16.926 47.57-18.82a30.9 30.9 0 0 1 11.37-2.168h230.42c1.03 0 1.81.545 2.24 1.289"
       id="path65" />
    <path
       fill="#000C2A"
       d="m1233.08 802.233-290.131-1.288v7.728h290.131z"
       id="path66" />
    <path
       fill="#000C2A"
       d="M1283.33 765.676c2.02-1.466.98-4.66-1.51-4.66h-234.13c-3.89 0-7.74.733-11.36 2.162l-86.271 34.083c-2.644 1.044-1.896 4.972.947 4.972h274.864c4.62 0 9.13-1.463 12.87-4.178z"
       id="path67" />
    <path
       fill="url(#A)"
       d="m1151.75 801.999 17.26-10.079H1043.2l-6.62 2.937-15.58 7.142z"
       id="path68" />
    <path
       fill="url(#B)"
       fill-rule="evenodd"
       d="m1073.32 761.016-21.85 9.004h-32.46l17.32-6.842a30.9 30.9 0 0 1 11.36-2.162zm36.31 0h-32.93l-21.85 9.004h34.5zm36.92 0h-33.75l-20.28 9.004h35.35zm36.65 0h-33.7l-18.68 9.004h35.28zm38.72 0h-35.97l-17.1 9.004h37.65zm36.49 0h-33.94l-15.41 9.004h35.6zm2.35 0h21.06c2.49 0 3.53 3.194 1.51 4.66l-5.98 4.344h-30.34zm14.81 10.292-12.41 9.012h-31.88l13.77-9.012zm-14.18 10.3-12.43 9.025h-33.42l13.78-9.025zm-14.21 10.313-8.44 6.134a21.92 21.92 0 0 1-12.87 4.178h-28.05l15.75-10.312zm-51.71 10.312h-38.18c-.77 0-1.25-.597-1.29-1.224l15.56-9.088h39.66zm-178.67 0h-40.119l25.019-10.312h38.32zm-43.5 0h-29.06c-1.422 0-1.795-1.964-.474-2.486l19.809-7.826h34.749zm-6.464-11.6 22.843-9.025h33.671l-21.9 9.025zm26.103-10.313 22.811-9.012h32.6l-21.88 9.012zm96.681-9.012h35.58l-18.7 9.012h-37.18zm38.52 0h35.52l-17.11 9.012h-37.1zm38.27 0h37.89l-15.43 9.012h-39.57zm40.44 0h35.85l-13.77 9.012h-37.51zm6.33 19.325 13.79-9.025h-37.76l-15.45 9.025zm-41.97 0 15.45-9.025h-39.81l-17.13 9.025zm-44.24 0 17.13-9.025h-37.33l-18.72 9.025zm-41.86 0 18.72-9.025h-37.41l-20.32 9.025zm-42.19 0 20.33-9.025h-36.52l-21.9 9.025zm8.81-19.325-21.88 9.012h36.3l20.3-9.012z"
       clip-rule="evenodd"
       id="path69" />
    <path
       fill="#FF720E"
       d="m1073.32 761.016-21.85 9.004h-32.45l17.31-6.842a30.9 30.9 0 0 1 11.36-2.162z"
       id="path70" />
    <path
       fill="#B5F6FF"
       d="m1064.44 764.667 8.87-3.651h-25.62c-3.89 0-7.74.733-11.36 2.162l-17.31 6.838h10.6l9.97-3.474a30.9 30.9 0 0 1 9.85-1.718zm3.47-.036 8.77-3.615h32.94l-7.34 3.256zm37.62-.393 7.26-3.222h33.76l-5.93 2.856zm38.1-.398 5.86-2.824h33.69l-4.67 2.46zm37.69-.393 4.61-2.431h35.97l-3.5 2.043zm39.69-.415 3.45-2.016h33.94l-2.49 1.631zm37.29-.41 2.45-1.606h21.07c1.15 0 1.99.681 2.37 1.558a2.7 2.7 0 0 0-1.03-.191zm-315.042 37.475c.127-.145.297-.266.51-.35l19.819-7.83h3.156zm27.183-9.468h-3.594l22.843-9.025h6.66zm29.609-10.313h-7.1l22.81-9.012h10.16z"
       id="path71" />
    <text
       xml:space="preserve"
       id="text1"
       style="font-weight:bold;font-size:20px;line-height:28.8889px;font-family:Inter;-inkscape-font-specification:'Inter Bold';text-align:start;letter-spacing:0px;writing-mode:lr-tb;direction:ltr;white-space:pre;shape-inside:url(#rect1);fill:#b3b3b3" />
    <text
       xml:space="preserve"
       style="font-weight:bold;font-size:20px;line-height:28.8889px;font-family:Inter;-inkscape-font-specification:'Inter Bold';text-align:start;letter-spacing:0px;writing-mode:lr-tb;direction:ltr;text-anchor:start;fill:#b3b3b3"
       x="232.69431"
       y="598.47632"
       id="text2"><tspan
         sodipodi:role="line"
         id="tspan2"></tspan></text>
    <path
       d="m 108.21575,566.50116 q -0.0653,1.67744 -0.6384,2.84255 -0.58188,1.16477 -1.61647,1.75779 -1.0346,0.59302 -2.45735,0.53763 l 0.10154,-2.60837 q 0.72084,0.0105 1.24287,-0.29465 0.52237,-0.31391 0.81822,-0.90929 0.29584,-0.59539 0.32832,-1.42972 0.0294,-0.75529 -0.15106,-1.31644 -0.18889,-0.57028 -0.55457,-0.89237 -0.36534,-0.33087 -0.87472,-0.35069 -0.42155,-0.0164 -0.73851,0.21753 -0.3254,0.22482 -0.58269,0.73375 -0.25696,0.50015 -0.46508,1.32764 l -0.35228,1.36721 q -0.49745,1.93329 -1.43896,2.84657 -0.94152,0.91329 -2.3467,0.85859 -1.19441,-0.0465 -2.05716,-0.70458 -0.87153,-0.65842 -1.32871,-1.79327 -0.45684,-1.14364 -0.39906,-2.62787 0.0585,-1.50179 0.61058,-2.57976 0.55211,-1.07797 1.5242,-1.64704 0.96365,-0.57818 2.28272,-0.57081 l -0.0985,2.52933 q -0.93367,0.034 -1.4947,0.66306 -0.56102,0.62905 -0.60205,1.68294 -0.0256,0.65868 0.16497,1.18505 0.18216,0.51724 0.5394,0.8302 0.35758,0.30418 0.83183,0.32264 0.40399,0.0157 0.71148,-0.20099 0.29871,-0.21706 0.53776,-0.70911 0.23905,-0.49205 0.4458,-1.28442 l 0.32115,-1.24528 q 0.26902,-1.03622 0.6325,-1.7873 0.35469,-0.75142 0.83052,-1.22546 0.46705,-0.47438 1.0647,-0.6886 0.59766,-0.21421 1.33538,-0.1855 1.25588,0.0489 2.15342,0.71712 0.8891,0.65911 1.33544,1.84631 0.44669,1.17843 0.38413,2.78561 z m 0.42905,-11.0219 q -0.0544,1.3964 -0.70171,2.43548 -0.64735,1.03909 -1.75962,1.5939 -1.11192,0.54603 -2.56102,0.48962 -1.45788,-0.0568 -2.524,-0.68757 -1.06577,-0.6396 -1.63039,-1.72586 -0.5734,-1.0866 -0.51904,-2.48301 0.055,-1.41396 0.71084,-2.44392 0.64735,-1.03908 1.75928,-1.58511 1.11226,-0.55481 2.57014,-0.49806 1.4491,0.0564 2.51487,0.69601 1.06612,0.63081 1.63073,1.71707 0.56497,1.07748 0.50992,2.49145 z m -2.09899,-0.0817 q 0.0246,-0.63233 -0.28188,-1.11923 -0.31527,-0.48725 -0.91978,-0.77465 -0.60451,-0.2874 -1.4564,-0.32057 -0.86946,-0.0338 -1.49449,0.2057 -0.62502,0.23954 -0.96843,0.70114 -0.3522,0.46126 -0.37681,1.09359 -0.0243,0.62355 0.29099,1.1108 0.30649,0.4869 0.911,0.7743 0.60452,0.2874 1.47398,0.32125 0.86067,0.0335 1.4857,-0.20604 0.61624,-0.23988 0.96843,-0.70114 0.34341,-0.4616 0.36769,-1.08515 z m -10.85775,-9.16565 13.08579,0.5094 -0.10085,2.59081 -13.08579,-0.5094 z m 13.47696,-4.56808 q -0.0383,0.98363 -0.48857,1.70494 -0.45871,0.71219 -1.2912,1.08438 -0.84128,0.37186 -2.00934,0.32639 l -5.80517,-0.22598 0.10085,-2.59081 5.33093,0.20752 q 0.93093,0.0362 1.44018,-0.39252 0.50047,-0.4291 0.53192,-1.23708 0.0209,-0.53573 -0.18297,-0.94827 -0.2035,-0.42132 -0.66008,-0.66778 -0.45623,-0.25525 -1.16761,-0.28294 l -5.15527,-0.20068 0.10051,-2.58203 9.27422,0.36102 -0.0988,2.53812 -2.41516,-0.094 0.0171,-0.43912 q 1.21245,0.48699 1.87446,1.33076 0.65358,0.83465 0.60401,2.1081 z m -8.97685,-12.97129 2.02874,0.079 -0.23692,6.08621 -2.02874,-0.079 z m -2.70403,4.38936 0.10085,-2.59082 8.9405,0.34804 q 0.46546,0.0181 0.65707,-0.15914 0.19196,-0.18603 0.21247,-0.71297 0.009,-0.21956 0.0202,-0.51817 0.012,-0.30738 0.0185,-0.47425 l 2.02874,0.079 q -0.009,0.23712 -0.0256,0.65868 -0.0164,0.42155 -0.0332,0.85189 -0.0595,1.52814 -0.68506,2.23383 -0.62524,0.69691 -1.88991,0.64768 z m 12.02886,-5.32815 -9.27423,-0.36102 0.10085,-2.59081 9.27423,0.36102 z m -10.39204,-1.6975 q -0.0249,0.64111 -0.42779,1.04763 -0.41162,0.40617 -1.00882,0.38292 -0.5972,-0.0233 -0.96722,-0.45985 -0.3788,-0.43694 -0.35418,-1.06927 0.025,-0.64112 0.43657,-1.04729 0.40284,-0.40651 1.00004,-0.38326 0.59721,0.0232 0.976,0.46018 0.37002,0.4366 0.3454,1.06894 z m 10.9423,-7.01521 q -0.0544,1.3964 -0.70171,2.43548 -0.64736,1.03908 -1.75962,1.59389 -1.11193,0.54603 -2.56103,0.48962 -1.45788,-0.0567 -2.52399,-0.68756 -1.06577,-0.6396 -1.63039,-1.72586 -0.5734,-1.0866 -0.51904,-2.48301 0.055,-1.41397 0.71084,-2.44392 0.64735,-1.03909 1.75927,-1.58511 1.11227,-0.55482 2.57015,-0.49806 1.4491,0.0564 2.51487,0.696 1.06611,0.63082 1.63073,1.71708 0.56496,1.07748 0.50992,2.49145 z m -2.099,-0.0817 q 0.0246,-0.63234 -0.28187,-1.11924 -0.31527,-0.48724 -0.91978,-0.77464 -0.60451,-0.28741 -1.45641,-0.32057 -0.86946,-0.0338 -1.49448,0.2057 -0.62503,0.23954 -0.96844,0.70114 -0.35219,0.46126 -0.37681,1.09359 -0.0243,0.62355 0.291,1.11079 0.30649,0.4869 0.911,0.77431 0.60451,0.2874 1.47397,0.32125 0.86068,0.0335 1.4857,-0.20604 0.61625,-0.23988 0.96844,-0.70114 0.34341,-0.4616 0.36768,-1.08515 z m -2.92723,-8.85693 5.15527,0.20068 -0.10085,2.59081 -9.27423,-0.36102 0.0991,-2.5469 2.41516,0.094 -0.0171,0.43912 q -1.21245,-0.48698 -1.86568,-1.33041 -0.66202,-0.84377 -0.61279,-2.10844 0.0386,-0.99241 0.49735,-1.7046 0.44993,-0.71253 1.28208,-1.07594 0.83249,-0.3722 2.00933,-0.32639 l 5.80518,0.22598 -0.10051,2.58203 -5.33093,-0.20752 q -0.93093,-0.0362 -1.4314,0.39286 -0.50891,0.41998 -0.54071,1.23674 -0.0208,0.53573 0.18264,0.95705 0.20349,0.42132 0.66007,0.66778 0.4478,0.24612 1.16796,0.27416 z m 5.84276,-11.58519 q -0.0468,1.20319 -0.45228,2.12855 -0.41423,0.92502 -1.1387,1.45974 -0.72447,0.53473 -1.7203,0.58392 l 0.0991,-2.5469 q 0.60872,-0.0467 0.96833,-0.47246 0.35961,-0.42579 0.38901,-1.18107 0.028,-0.72016 -0.22849,-1.13475 -0.25619,-0.42337 -0.68653,-0.44012 -0.36886,-0.0144 -0.60951,0.29291 -0.24031,0.2985 -0.36792,0.86525 l -0.37941,1.61244 q -0.31613,1.34224 -1.0285,2.01816 -0.71238,0.67593 -1.78384,0.63422 -0.87824,-0.0342 -1.51846,-0.53408 -0.63987,-0.50867 -0.96577,-1.40093 -0.32555,-0.90104 -0.27837,-2.11301 0.0468,-1.20319 0.46814,-2.08396 0.41251,-0.8811 1.13459,-1.35435 0.72243,-0.48203 1.68952,-0.47077 l -0.0933,2.3976 q -0.56241,-0.0131 -0.94803,0.40288 -0.38561,0.41598 -0.41262,1.10979 -0.026,0.66746 0.24914,1.05639 0.26634,0.38858 0.67911,0.40465 0.36008,0.014 0.60004,-0.27569 0.23997,-0.28972 0.37465,-0.81222 l 0.41089,-1.74315 q 0.32696,-1.39458 0.97615,-2.02899 0.64075,-0.64353 1.6683,-0.60353 0.92215,0.0359 1.59545,0.58985 0.66485,0.54483 1.01504,1.4908 0.34175,0.93686 0.29457,2.14883 z m 0.27719,-9.40057 -12.74884,-2.9941 2.14812,-9.14665 2.25885,0.5305 -1.5292,6.51132 2.95191,0.69326 1.41466,-6.02361 2.19897,0.51644 -1.41467,6.02361 3.08026,0.7234 1.5292,-6.51132 2.25885,0.5305 z m -1.85976,-14.32059 5.01259,1.22111 -0.61368,2.51911 -9.01753,-2.19676 0.60327,-2.4764 2.34832,0.57207 -0.10401,0.42697 q -1.0915,-0.71821 -1.5641,-1.67463 -0.48114,-0.95849 -0.18159,-2.18816 0.23507,-0.96494 0.82616,-1.57177 0.58255,-0.60891 1.47032,-0.79972 0.88985,-0.19935 2.03412,0.0794 l 5.6445,1.37505 -0.6116,2.51056 -5.18337,-1.26271 q -0.90517,-0.22051 -1.48093,0.10058 -0.58221,0.31047 -0.77568,1.10463 -0.12689,0.5209 -0.0112,0.97425 0.11571,0.45336 0.51421,0.78563 0.38995,0.3302 1.09018,0.50078 z m 11.62018,-9.86088 q -0.31204,1.2809 -0.89766,2.08807 -0.575,0.80072 -1.35734,1.1529 -0.78026,0.34364 -1.69102,0.25747 l 0.5908,-2.42517 q 0.36445,-0.0107 0.6618,-0.19158 0.29943,-0.18939 0.50843,-0.52746 0.21754,-0.33599 0.33196,-0.80565 0.22466,-0.92225 -0.1585,-1.54026 -0.38109,-0.62656 -1.35457,-0.86371 l -1.38337,-0.337 -0.002,0.009 q 0.46495,0.39369 0.70875,0.87825 0.24588,0.47602 0.28331,1.02791 0.0395,0.54334 -0.10402,1.13256 -0.28708,1.17842 -1.09056,1.91444 -0.80348,0.73601 -1.95531,0.97104 -1.14976,0.22649 -2.49043,-0.10011 -1.35775,-0.33076 -2.28098,-1.0713 -0.92968,-0.75115 -1.30671,-1.7657 -0.37494,-1.02309 -0.0941,-2.1759 0.14354,-0.58921 0.42644,-1.04497 0.28498,-0.46429 0.71579,-0.78451 0.43289,-0.32876 1.00535,-0.48782 l 0.002,-0.009 -1.30652,-0.31828 0.60535,-2.48494 8.66742,2.11146 q 1.42607,0.3474 2.17894,1.11881 0.76142,0.77348 0.92791,1.87243 0.17712,1.0925 -0.14116,2.39902 z m -5.72069,-1.28506 q 0.15601,-0.64045 -0.0455,-1.18709 -0.208,-0.55725 -0.73272,-0.96551 -0.52473,-0.40825 -1.31035,-0.59964 -0.78561,-0.19138 -1.43078,-0.0681 -0.6537,0.12118 -1.08615,0.52241 -0.43891,0.39062 -0.59493,1.03107 -0.14769,0.60629 0.0495,1.13376 0.18862,0.5254 0.70689,0.92303 0.52034,0.3891 1.34866,0.59089 0.82831,0.20178 1.46932,0.0956 0.64308,-0.11472 1.06075,-0.49242 0.41767,-0.37769 0.56537,-0.98398 z m 3.53989,-5.80464 -9.01754,-2.19675 0.61368,-2.51911 9.01753,2.19676 z m -9.84747,-3.72871 q -0.15186,0.62337 -0.62744,0.94173 -0.48412,0.31627 -1.0648,0.17482 -0.58067,-0.14146 -0.85655,-0.64288 -0.28442,-0.5035 -0.13464,-1.11833 0.15186,-0.62337 0.63598,-0.93965 0.47559,-0.31835 1.05626,-0.1769 0.58067,0.14146 0.86509,0.64496 0.27588,0.50142 0.1261,1.11625 z m 6.49493,-4.30676 5.01258,1.22111 -0.61367,2.5191 -9.01753,-2.19675 0.60327,-2.47641 2.34832,0.57208 -0.10402,0.42696 q -1.09149,-0.7182 -1.56409,-1.67462 -0.48115,-0.9585 -0.18159,-2.18816 0.23507,-0.96494 0.82616,-1.57178 0.58255,-0.60891 1.47032,-0.79971 0.88985,-0.19935 2.03412,0.0794 l 5.64449,1.37505 -0.61159,2.51056 -5.18338,-1.26272 q -0.90516,-0.2205 -1.48092,0.10059 -0.58222,0.31047 -0.77568,1.10463 -0.1269,0.5209 -0.0112,0.97425 0.11571,0.45336 0.5142,0.78563 0.38996,0.3302 1.09019,0.50078 z m 8.10077,-10.5645 q -0.33284,1.3663 -1.17815,2.23686 -0.85176,0.85994 -2.05647,1.16351 -1.20264,0.29502 -2.56893,-0.0378 -1.38337,-0.337 -2.30495,-1.15855 -0.92804,-0.83217 -1.29094,-1.97897 -0.3629,-1.1468 -0.0488,-2.43624 0.24339,-0.9991 0.78258,-1.72713 0.53066,-0.7301 1.30611,-1.16538 0.76691,-0.43735 1.69781,-0.54528 0.93299,-0.11647 1.96624,0.13524 l 0.67461,0.16434 -1.94088,7.9672 -1.60539,-0.39109 1.64548,-6.75461 0.1076,1.22934 q -0.68315,-0.16642 -1.23876,-0.0394 -0.55561,0.12698 -0.93266,0.52362 -0.38351,0.38601 -0.53745,1.01792 -0.15186,0.62337 0.0111,1.14253 0.15447,0.51707 0.58942,0.88537 0.43496,0.36829 1.1181,0.53471 l 1.09304,0.26628 q 0.70022,0.17058 1.28999,0.0519 0.5833,-0.12928 0.99014,-0.53676 0.39829,-0.40955 0.56263,-1.08416 0.12065,-0.49528 0.0756,-0.90429 -0.0516,-0.41964 -0.24533,-0.73822 -0.20023,-0.32921 -0.5233,-0.52551 l 0.55959,-2.29708 q 0.8571,0.38067 1.39463,1.14485 0.53753,0.76417 0.70983,1.76503 0.16376,0.99878 -0.10251,2.09181 z m 2.3923,-9.82022 q -0.33284,1.3663 -1.17814,2.23686 -0.85177,0.85994 -2.05648,1.1635 -1.20263,0.29503 -2.56893,-0.0378 -1.38337,-0.33701 -2.30495,-1.15855 -0.92804,-0.83217 -1.29094,-1.97897 -0.3629,-1.1468 -0.0488,-2.43624 0.24339,-0.9991 0.78259,-1.72713 0.53066,-0.7301 1.3061,-1.16538 0.76691,-0.43735 1.69782,-0.54528 0.93298,-0.11647 1.96624,0.13524 l 0.6746,0.16434 -1.94088,7.9672 -1.60539,-0.39109 1.64548,-6.75461 0.1076,1.22934 q -0.68315,-0.16642 -1.23876,-0.0394 -0.5556,0.12698 -0.93266,0.52362 -0.38351,0.38601 -0.53745,1.01792 -0.15186,0.62337 0.0112,1.14253 0.15446,0.51707 0.58942,0.88536 0.43495,0.3683 1.1181,0.53472 l 1.09303,0.26627 q 0.70022,0.17059 1.28999,0.0519 0.58331,-0.12928 0.99014,-0.53676 0.39829,-0.40955 0.56263,-1.08416 0.12066,-0.49528 0.0756,-0.90429 -0.0516,-0.41964 -0.24533,-0.73822 -0.20023,-0.32921 -0.5233,-0.52551 l 0.55959,-2.29708 q 0.8571,0.38067 1.39463,1.14484 0.53753,0.76418 0.70983,1.76504 0.16376,0.99878 -0.10251,2.09181 z m 1.18466,-5.75419 -9.01753,-2.19675 0.59079,-2.42517 1.53708,0.37445 0.006,-0.0256 q -0.75091,-0.44527 -1.01474,-1.0704 -0.26383,-0.62513 -0.0454,-1.52176 0.0541,-0.22202 0.10631,-0.39927 0.0458,-0.18786 0.0918,-0.33949 l 2.14337,0.52215 q -0.0418,0.13455 -0.13587,0.44634 -0.092,0.30326 -0.17102,0.62775 -0.12482,0.51236 0.0144,0.9805 0.13071,0.46605 0.53567,0.80895 0.40495,0.34289 1.0881,0.50931 l 4.8845,1.18991 z m 1.61179,-6.61627 -9.01753,-2.19675 0.61367,-2.5191 9.01753,2.19675 z m -9.84747,-3.72871 q -0.15186,0.62337 -0.62744,0.94173 -0.48412,0.31627 -1.0648,0.17482 -0.58067,-0.14146 -0.85655,-0.64288 -0.28442,-0.5035 -0.13464,-1.11833 0.15186,-0.62337 0.63598,-0.93965 0.47559,-0.31835 1.05626,-0.1769 0.58068,0.14146 0.86509,0.64496 0.27588,0.50142 0.1261,1.11625 z m 6.66011,-4.83821 4.8495,1.76054 -0.88478,2.43714 -8.72413,-3.16718 0.86978,-2.39584 2.27191,0.82479 -0.14997,0.41308 q -1.00664,-0.83297 -1.37211,-1.83523 -0.37373,-1.00526 0.0582,-2.19491 0.33891,-0.93355 0.99266,-1.47229 0.64549,-0.54174 1.54877,-0.63458 0.90629,-0.1011 2.01333,0.3008 l 5.46084,1.98249 -0.88177,2.42888 -5.01473,-1.82054 q -0.87571,-0.31792 -1.48306,-0.0615 -0.6126,0.24512 -0.89153,1.01344 -0.18295,0.50395 -0.11738,0.96722 0.0656,0.46327 0.42545,0.83703 0.35162,0.37076 1.02906,0.6167 z m 13.22731,-7.99793 q -0.53758,1.20377 -1.25896,1.89231 -0.70978,0.6841 -1.54275,0.88965 -0.82939,0.19753 -1.70974,-0.0512 l 1.01781,-2.27915 q 0.36043,0.0551 0.68549,-0.0693 0.32863,-0.13238 0.59509,-0.42729 0.27449,-0.29133 0.4716,-0.73271 0.38706,-0.86672 0.12143,-1.54363 -0.26203,-0.68493 -1.1769,-1.09349 l -1.30008,-0.58059 -0.004,0.008 q 0.38646,0.47098 0.53903,0.99152 0.15615,0.51251 0.0936,1.06211 -0.059,0.54158 -0.30626,1.09532 -0.49457,1.10747 -1.41745,1.68678 -0.92287,0.57931 -2.0982,0.6031 -1.17174,0.0158 -2.4317,-0.54691 -1.276,-0.56983 -2.05079,-1.4645 -0.77924,-0.90627 -0.96742,-1.97213 -0.1846,-1.07388 0.29922,-2.15728 0.24729,-0.55373 0.60763,-0.9511 0.36393,-0.40539 0.84535,-0.64281 0.48501,-0.24544 1.07676,-0.29882 l 0.004,-0.008 -1.22785,-0.54833 1.0429,-2.33533 8.14556,3.63762 q 1.34021,0.5985 1.94188,1.49286 0.60969,0.89794 0.57559,2.00891 -0.0225,1.10653 -0.57083,2.33439 z m -5.3958,-2.29414 q 0.26879,-0.60188 0.16897,-1.17587 -0.10426,-0.5856 -0.5469,-1.08167 -0.44264,-0.49606 -1.18095,-0.82578 -0.73832,-0.32971 -1.39513,-0.32464 -0.66484,0.001 -1.16247,0.31831 -0.50207,0.30519 -0.77086,0.90708 -0.25445,0.56979 -0.15549,1.12414 0.0909,0.55077 0.52914,1.03523 0.44178,0.47643 1.22022,0.82407 0.77844,0.34763 1.42809,0.35861 0.65322,0.003 1.13208,-0.29337 0.47885,-0.29632 0.7333,-0.86611 z m 7.40258,-11.12304 q -0.37631,0.84265 -0.95106,1.37528 -0.57476,0.53263 -1.30497,0.65894 -0.73823,0.12273 -1.58087,-0.25357 -0.71424,-0.31897 -1.06946,-0.79525 -0.36324,-0.47986 -0.44787,-1.06631 -0.0891,-0.59807 0.0237,-1.26002 0.11631,-0.66999 0.35401,-1.35314 0.26738,-0.81428 0.39944,-1.30397 0.13205,-0.48969 0.0852,-0.75125 -0.0468,-0.26155 -0.31969,-0.3834 l -0.0562,-0.0251 q -0.31299,-0.13977 -0.62098,-0.0752 -0.31601,0.061 -0.59221,0.31307 -0.27262,0.24403 -0.46615,0.67739 -0.19353,0.43336 -0.20762,0.83134 -0.0105,0.38996 0.15226,0.69366 0.16277,0.30371 0.47746,0.48275 l -0.99273,2.22297 q -0.84965,-0.44681 -1.28739,-1.19096 -0.43415,-0.75217 -0.40651,-1.74089 0.0196,-0.99231 0.53927,-2.15596 0.38706,-0.86672 0.89232,-1.45927 0.49723,-0.59613 1.08228,-0.89314 0.58863,-0.30505 1.23383,-0.30569 0.64521,-6.3e-4 1.32735,0.304 l 5.74603,2.56604 -1.03216,2.31125 -1.19575,-0.53399 -0.0143,0.0321 q 0.31696,0.41106 0.46695,0.8727 0.15,0.46163 0.10708,1.01038 -0.051,0.54516 -0.34124,1.1952 z m -1.35129,-1.39275 q 0.25446,-0.56979 0.22858,-1.07225 -0.0223,-0.51049 -0.28308,-0.89647 -0.26078,-0.38598 -0.71822,-0.59026 l -0.85067,-0.37989 q 0.01,0.12941 -0.01,0.32303 -0.0271,0.19003 -0.0793,0.43624 -0.0602,0.24262 -0.13034,0.52896 -0.0701,0.28633 -0.15543,0.58513 -0.11857,0.43796 -0.12908,0.82792 -0.0185,0.38637 0.12015,0.67932 0.13067,0.28937 0.46773,0.43989 0.29693,0.13261 0.58529,0.0689 0.28835,-0.0637 0.53331,-0.3105 0.24495,-0.24676 0.42056,-0.63999 z m -2.19301,-13.81997 1.85382,0.82787 -2.48362,5.56146 -1.85382,-0.82788 z m -4.14261,3.06872 1.05724,-2.36743 8.16964,3.64837 q 0.42533,0.18995 0.66912,0.0967 0.24738,-0.1013 0.46241,-0.58281 0.0896,-0.20063 0.21145,-0.47348 0.12543,-0.28088 0.19353,-0.43336 l 1.85381,0.82787 q -0.0968,0.21668 -0.26879,0.60189 -0.17202,0.38521 -0.34763,0.77844 -0.62359,1.39638 -1.46677,1.81877 -0.83958,0.41436 -1.99521,-0.10171 z m 16.63113,-8.27236 -1.37979,3.0897 -2.07852,-0.92822 1.32244,-2.9613 q 0.53758,-1.20377 0.43939,-2.19094 -0.10622,-0.99074 -0.80091,-1.76301 -0.70272,-0.77585 -1.96268,-1.33852 -1.25995,-0.56266 -2.29869,-0.56451 -1.03875,-0.002 -1.83938,0.58392 -0.79704,0.57775 -1.32745,1.76548 l -1.35829,3.04154 -2.07852,-0.92822 1.42638,-3.19402 q 0.80278,-1.79764 2.12083,-2.78764 1.31002,-0.99358 2.96919,-1.10932 1.65917,-0.11574 3.49693,0.70497 1.83777,0.8207 2.86704,2.13703 1.02124,1.31275 1.16019,2.96303 0.14254,1.64226 -0.67816,3.48003 z m -12.73881,-3.59046 11.95752,5.33995 -1.10382,2.47176 -11.95753,-5.33996 z m 15.97505,-3.65629 -8.4746,-3.78455 1.05724,-2.36743 8.4746,3.78456 z m -9.01512,-5.44091 q -0.26162,0.58584 -0.78675,0.81336 -0.53316,0.22393 -1.07887,-0.0198 -0.54572,-0.2437 -0.7268,-0.7866 -0.18911,-0.54648 0.0689,-1.1243 0.26162,-0.58583 0.79478,-0.80977 0.52513,-0.22752 1.07085,0.0162 0.54571,0.24371 0.73482,0.79019 0.18108,0.5429 -0.077,1.12071 z m 16.07302,-1.05211 q -0.53758,1.20378 -1.25897,1.89232 -0.70978,0.6841 -1.54275,0.88965 -0.82939,0.19753 -1.70974,-0.0512 l 1.01782,-2.27915 q 0.36043,0.0551 0.68548,-0.0693 0.32864,-0.13239 0.5951,-0.42729 0.27448,-0.29133 0.47159,-0.73271 0.38706,-0.86672 0.12144,-1.54363 -0.26204,-0.68494 -1.17691,-1.0935 l -1.30008,-0.58058 -0.004,0.008 q 0.38647,0.47098 0.53903,0.99152 0.15615,0.51251 0.0936,1.06212 -0.059,0.54158 -0.30626,1.09532 -0.49457,1.10747 -1.41745,1.68678 -0.92287,0.57931 -2.0982,0.60309 -1.17174,0.0158 -2.4317,-0.5469 -1.276,-0.56983 -2.05079,-1.4645 -0.77923,-0.90627 -0.96742,-1.97213 -0.1846,-1.07388 0.29922,-2.15728 0.24729,-0.55374 0.60763,-0.9511 0.36393,-0.4054 0.84535,-0.64281 0.48501,-0.24544 1.07676,-0.29882 l 0.004,-0.008 -1.22786,-0.54833 1.04291,-2.33533 8.14556,3.63762 q 1.3402,0.59851 1.94187,1.49287 0.60969,0.89794 0.57559,2.00891 -0.0225,1.10653 -0.57082,2.33438 z m -5.39581,-2.29413 q 0.26879,-0.60189 0.16897,-1.17588 -0.10426,-0.58559 -0.5469,-1.08166 -0.44263,-0.49607 -1.18095,-0.82578 -0.73832,-0.32972 -1.39513,-0.32464 -0.66484,10e-4 -1.16246,0.3183 -0.50207,0.3052 -0.77086,0.90709 -0.25446,0.56979 -0.1555,1.12414 0.0909,0.55077 0.52914,1.03523 0.44178,0.47643 1.22022,0.82407 0.77844,0.34763 1.42809,0.3586 0.65323,0.003 1.13208,-0.29337 0.47885,-0.29631 0.7333,-0.8661 z m 4.52722,-5.07234 -8.47459,-3.78456 1.05724,-2.36743 8.47459,3.78456 z m -9.01511,-5.44092 q -0.26162,0.58584 -0.78676,0.81336 -0.53316,0.22394 -1.07887,-0.0198 -0.54571,-0.2437 -0.72679,-0.7866 -0.18911,-0.54648 0.0689,-1.12429 0.26162,-0.58584 0.79478,-0.80978 0.52513,-0.22752 1.07084,0.0162 0.54572,0.2437 0.73482,0.79018 0.18109,0.5429 -0.0769,1.12071 z m 5.30983,-8.03057 1.76192,1.00878 -3.02633,5.28577 -1.76193,-1.00878 z m -4.42823,2.63989 1.28827,-2.25008 7.76467,4.44562 q 0.40425,0.23145 0.65613,0.16298 0.25625,-0.0761 0.51827,-0.53374 0.10918,-0.19068 0.25765,-0.45001 0.15285,-0.26696 0.23582,-0.41188 l 1.76193,1.00878 q -0.11791,0.20594 -0.32753,0.57205 -0.20961,0.36611 -0.4236,0.73986 -0.75986,1.32716 -1.64098,1.66328 -0.87676,0.32848 -1.9751,-0.30037 z m 15.22706,-1.38242 q -0.51952,0.76273 -1.17949,1.1852 -0.65997,0.42248 -1.401,0.41754 -0.7483,-0.01 -1.51102,-0.52942 -0.6465,-0.44036 -0.9118,-0.97199 -0.27256,-0.53659 -0.25204,-1.12876 0.0182,-0.60439 0.24633,-1.23594 0.23308,-0.63881 0.58795,-1.26909 0.40731,-0.75409 0.62396,-1.21268 0.21665,-0.45858 0.21686,-0.72429 2.1e-4,-0.26572 -0.24677,-0.43394 l -0.0508,-0.0346 q -0.2833,-0.19296 -0.59786,-0.18391 -0.32182,0.004 -0.63828,0.20329 -0.31151,0.19192 -0.57869,0.58418 -0.26719,0.39226 -0.35151,0.78146 -0.0794,0.38194 0.0271,0.70966 0.10644,0.32772 0.38447,0.55964 l -1.37055,2.01214 q -0.75715,-0.59016 -1.05624,-1.40004 -0.29415,-0.81715 -0.0919,-1.78537 0.19496,-0.97316 0.9124,-2.02645 0.53437,-0.78451 1.13654,-1.27826 0.59491,-0.49869 1.2233,-0.68746 0.63333,-0.19603 1.26846,-0.0824 0.63512,0.11359 1.25257,0.53415 l 5.20105,3.54268 -1.42499,2.09204 -1.08234,-0.73723 -0.0198,0.0291 q 0.23919,0.46068 0.30509,0.94158 0.0659,0.4809 -0.0735,1.01338 -0.14664,0.52754 -0.54742,1.11592 z m -1.0834,-1.60996 q 0.3513,-0.51575 0.41477,-1.01486 0.0684,-0.50637 -0.11991,-0.93242 -0.18835,-0.42605 -0.6024,-0.70807 l -0.76998,-0.52448 q -0.0135,0.12907 -0.0665,0.31625 -0.0603,0.18223 -0.15528,0.41531 -0.10222,0.22813 -0.22192,0.49754 -0.11969,0.2694 -0.25655,0.54838 -0.19423,0.41004 -0.2736,0.79198 -0.0866,0.377 -0.002,0.68987 0.0774,0.30793 0.38247,0.51574 0.26877,0.18307 0.56385,0.17139 0.29509,-0.0117 0.57986,-0.21119 0.28476,-0.1995 0.52721,-0.55544 z m -4.40832,-13.87093 10.82341,7.37233 -1.45962,2.14289 -10.82342,-7.37232 z m 15.29744,1.17863 q -0.98958,1.45281 -2.45184,2.14764 -1.46953,0.68988 -3.17415,0.50714 -1.71188,-0.18769 -3.4262,-1.35539 -1.72884,-1.17759 -2.52305,-2.69692 -0.80147,-1.52427 -0.69032,-3.1394 0.10389,-1.62008 1.09347,-3.07289 0.99452,-1.46007 2.46405,-2.14995 1.46226,-0.69484 3.17415,-0.50715 1.70461,0.18275 3.43346,1.36034 1.72157,1.17264 2.51578,2.69197 0.79421,1.51932 0.69032,3.1394 -0.11115,1.61514 -1.10567,3.07521 z m -1.97582,-1.34582 q 0.569,-0.83537 0.58805,-1.76884 0.019,-0.93348 -0.53987,-1.84589 -0.55891,-0.91242 -1.70663,-1.69418 -1.15498,-0.78671 -2.20869,-0.97272 -1.06096,-0.19096 -1.92264,0.16856 -0.86167,0.35952 -1.43067,1.19489 -0.56406,0.8281 -0.58311,1.76157 -0.0141,0.92622 0.54714,1.85084 0.55891,0.91242 1.71389,1.69913 1.14772,0.78176 2.20142,0.96777 1.05865,0.17875 1.91538,-0.17351 0.86167,-0.35952 1.42573,-1.18762 z m 8.67524,-8.48969 q -0.78176,1.14771 -1.87673,1.678 -1.09727,0.51807 -2.32952,0.39122 -1.23457,-0.13906 -2.4186,-0.94556 -1.19131,-0.81145 -1.76549,-1.90441 -0.5765,-1.10517 -0.49618,-2.31595 0.0853,-1.21803 0.86702,-2.36575 0.51458,-0.75546 1.17518,-1.24131 0.65333,-0.4908 1.38173,-0.68588 0.73334,-0.20235 1.48564,-0.10466 0.74504,0.0927 1.45523,0.50204 l -1.41015,2.07026 q -0.32751,-0.15928 -0.65134,-0.19907 -0.31888,-0.0471 -0.62186,0.0231 -0.30298,0.0701 -0.57553,0.2673 -0.26761,0.18992 -0.49027,0.5168 -0.36614,0.53754 -0.34508,1.1155 0.0138,0.57301 0.38606,1.13497 0.36994,0.54974 1.07455,1.02968 0.69735,0.475 1.34437,0.61796 0.65197,0.13569 1.19751,-0.0563 0.53827,-0.19697 0.90441,-0.73451 0.22265,-0.32688 0.3014,-0.64545 0.0787,-0.31856 0.0281,-0.61891 -0.0457,-0.30761 -0.20624,-0.58712 -0.16781,-0.28445 -0.43827,-0.54311 l 1.42004,-2.08478 q 0.64355,0.49153 1.00992,1.15581 0.36405,0.65207 0.45154,1.41352 0.0875,0.76146 -0.12769,1.56134 -0.21022,0.79262 -0.72975,1.55535 z m 5.61582,-8.24466 q -0.79166,1.16224 -1.88894,1.68031 -1.09959,0.50586 -2.33416,0.36681 -1.22961,-0.14633 -2.39186,-0.93798 -1.17677,-0.80156 -1.75095,-1.89452 -0.5765,-1.10517 -0.51335,-2.30637 0.0632,-1.20119 0.81029,-2.29806 0.5789,-0.84989 1.3395,-1.34206 0.75335,-0.49711 1.63229,-0.63219 0.87168,-0.14002 1.78115,0.086 0.91443,0.21876 1.79337,0.81745 l 0.57386,0.39088 -4.61636,6.77735 -1.36564,-0.9302 3.91377,-5.74586 -0.33119,1.18877 q -0.58112,-0.39582 -1.14592,-0.47214 -0.56481,-0.0763 -1.05718,0.16255 -0.49468,0.22666 -0.86082,0.7642 -0.3612,0.53028 -0.39099,1.0736 -0.0371,0.53838 0.24078,1.03601 0.27783,0.49764 0.85895,0.89347 l 0.92979,0.63332 q 0.59566,0.40573 1.18951,0.50184 0.59155,0.0839 1.1156,-0.15466 0.5168,-0.24351 0.90768,-0.81737 0.28698,-0.42131 0.38846,-0.82009 0.0992,-0.411 0.0297,-0.77736 -0.0718,-0.37857 -0.30531,-0.67586 l 1.33098,-1.95403 q 0.66871,0.65755 0.90349,1.56186 0.23477,0.90431 0.0444,1.9019 -0.19759,0.99264 -0.83092,1.92244 z m 4.93594,-7.34022 q -0.51952,0.76272 -1.17949,1.1852 -0.65997,0.42247 -1.401,0.41753 -0.7483,-0.01 -1.51102,-0.52941 -0.6465,-0.44036 -0.9118,-0.972 -0.27256,-0.53659 -0.25204,-1.12876 0.0182,-0.60438 0.24633,-1.23593 0.23308,-0.63881 0.58795,-1.2691 0.40731,-0.75409 0.62396,-1.21267 0.21665,-0.45858 0.21686,-0.7243 2.1e-4,-0.26571 -0.24677,-0.43394 l -0.0508,-0.0346 q -0.2833,-0.19297 -0.59786,-0.18391 -0.32182,0.004 -0.63828,0.20329 -0.31151,0.19192 -0.57869,0.58418 -0.26719,0.39225 -0.35151,0.78146 -0.0794,0.38194 0.0271,0.70966 0.10644,0.32772 0.38447,0.55964 l -1.37055,2.01214 q -0.75715,-0.59017 -1.05624,-1.40005 -0.29415,-0.81714 -0.0919,-1.78536 0.19496,-0.97317 0.9124,-2.02645 0.53437,-0.78452 1.13654,-1.27827 0.59491,-0.49869 1.2233,-0.68745 0.63333,-0.19603 1.26846,-0.0824 0.63512,0.11359 1.25257,0.53416 l 5.20105,3.54267 -1.42499,2.09204 -1.08234,-0.73723 -0.0198,0.0291 q 0.23919,0.46068 0.30509,0.94158 0.0659,0.48089 -0.0735,1.01338 -0.14664,0.52753 -0.54742,1.11592 z m -1.0834,-1.60997 q 0.3513,-0.51574 0.41477,-1.01485 0.0684,-0.50638 -0.11991,-0.93242 -0.18835,-0.42605 -0.6024,-0.70808 l -0.76998,-0.52447 q -0.0135,0.12906 -0.0665,0.31624 -0.0603,0.18224 -0.15528,0.41532 -0.10222,0.22813 -0.22192,0.49753 -0.11969,0.2694 -0.25655,0.54838 -0.19423,0.41005 -0.2736,0.79199 -0.0866,0.37699 -0.002,0.68987 0.0774,0.30793 0.38247,0.51574 0.26877,0.18307 0.56385,0.17138 0.29509,-0.0117 0.57986,-0.21119 0.28476,-0.1995 0.52721,-0.55544 z m 2.15112,-9.403 4.26399,2.9044 -1.45962,2.14289 -7.67083,-5.22495 1.43488,-2.10657 1.99761,1.36067 -0.24739,0.3632 q -0.76957,-1.05591 -0.87601,-2.11739 -0.11371,-1.06644 0.59878,-2.11246 0.55911,-0.82084 1.32572,-1.18131 0.75935,-0.36542 1.65756,-0.23215 0.90315,0.12601 1.87653,0.78902 l 4.80153,3.27054 -1.45467,2.13563 -4.40927,-3.00335 q -0.76999,-0.52448 -1.42185,-0.42615 -0.65418,0.0861 -1.11433,0.76168 -0.30182,0.44311 -0.35277,0.90821 -0.051,0.46511 0.2054,0.91621 0.24909,0.44616 0.84474,0.85188 z"
       id="text22"
       style="font-weight:bold;font-size:18px;line-height:26px;font-family:Inter;-inkscape-font-specification:'Inter Bold';letter-spacing:0px;fill:#f9f9f9"
       aria-label="Solutions Engineering at DigitalOcean" />
  </g>
  <defs
     id="defs129">
    <rect
       x="238.27448"
       y="503.0239"
       width="354.49081"
       height="30.042962"
       id="rect1" />
    <linearGradient
       id="d"
       x1="312.883"
       x2="378.883"
       y1="892.488"
       y2="802.488"
       gradientUnits="userSpaceOnUse">
      <stop
         stop-color="#000C2A"
         id="stop71" />
      <stop
         offset=".611"
         stop-color="#000C79"
         id="stop72" />
      <stop
         offset="1"
         stop-color="#0069FF"
         id="stop73" />
    </linearGradient>
    <linearGradient
       id="e"
       x1="338.5"
       x2="315.5"
       y1="832.998"
       y2="853.998"
       gradientUnits="userSpaceOnUse">
      <stop
         stop-color="#000C2A"
         id="stop74" />
      <stop
         offset=".473"
         stop-color="#000C79"
         id="stop75" />
      <stop
         offset="1"
         stop-color="#000C2A"
         id="stop76" />
    </linearGradient>
    <linearGradient
       id="f"
       x1="362"
       x2="362"
       y1="816"
       y2="830"
       gradientUnits="userSpaceOnUse">
      <stop
         stop-color="#39E7FF"
         id="stop77" />
      <stop
         offset="1"
         stop-color="#000C79"
         id="stop78" />
    </linearGradient>
    <linearGradient
       id="g"
       x1="726.5"
       x2="731.5"
       y1="883.5"
       y2="743"
       gradientUnits="userSpaceOnUse">
      <stop
         stop-color="#000C2A"
         id="stop79" />
      <stop
         offset=".611"
         stop-color="#000C79"
         id="stop80" />
      <stop
         offset="1"
         stop-color="#0069FF"
         id="stop81" />
    </linearGradient>
    <linearGradient
       id="h"
       x1="838.914"
       x2="838.914"
       y1="752.5"
       y2="864.5"
       gradientUnits="userSpaceOnUse">
      <stop
         stop-color="#fff"
         id="stop82" />
      <stop
         offset="1"
         stop-color="#fff"
         stop-opacity="0"
         id="stop83" />
    </linearGradient>
    <linearGradient
       id="j"
       x1="862.126"
       x2="860.203"
       y1="802.689"
       y2="784.146"
       gradientUnits="userSpaceOnUse">
      <stop
         stop-color="#F4F9FF"
         stop-opacity="0"
         id="stop84" />
      <stop
         offset=".99"
         stop-color="#F4F9FF"
         id="stop85" />
    </linearGradient>
    <linearGradient
       id="k"
       x1="830.914"
       x2="835.914"
       y1="776"
       y2="826.5"
       gradientUnits="userSpaceOnUse">
      <stop
         stop-color="#fff"
         id="stop86" />
      <stop
         offset="1"
         stop-color="#fff"
         stop-opacity="0"
         id="stop87" />
    </linearGradient>
    <linearGradient
       id="l"
       x1="842.625"
       x2="890.125"
       y1="834"
       y2="788.5"
       gradientUnits="userSpaceOnUse">
      <stop
         stop-color="#4ABEFF"
         stop-opacity=".5"
         id="stop88" />
      <stop
         offset="1"
         stop-color="#4ABEFF"
         stop-opacity="0"
         id="stop89" />
    </linearGradient>
    <linearGradient
       id="m"
       x1="605.5"
       x2="605.5"
       y1="752.5"
       y2="864.5"
       gradientUnits="userSpaceOnUse">
      <stop
         stop-color="#fff"
         id="stop90" />
      <stop
         offset="1"
         stop-color="#fff"
         stop-opacity="0"
         id="stop91" />
    </linearGradient>
    <linearGradient
       id="o"
       x1="613.5"
       x2="608.5"
       y1="776"
       y2="826.5"
       gradientUnits="userSpaceOnUse">
      <stop
         stop-color="#fff"
         id="stop92" />
      <stop
         offset="1"
         stop-color="#fff"
         stop-opacity="0"
         id="stop93" />
    </linearGradient>
    <linearGradient
       id="p"
       x1="550.5"
       x2="598"
       y1="834"
       y2="788.5"
       gradientUnits="userSpaceOnUse">
      <stop
         stop-color="#4ABEFF"
         stop-opacity=".5"
         id="stop94" />
      <stop
         offset="1"
         stop-color="#4ABEFF"
         stop-opacity="0"
         id="stop95" />
    </linearGradient>
    <linearGradient
       id="q"
       x1="436.316"
       x2="436.316"
       y1="887.779"
       y2="911.823"
       gradientUnits="userSpaceOnUse">
      <stop
         offset=".06"
         stop-color="#000C79"
         id="stop96" />
      <stop
         offset="1"
         stop-color="#000C2A"
         id="stop97" />
    </linearGradient>
    <linearGradient
       id="t"
       x1="777.971"
       x2="777.971"
       y1="883"
       y2="909.5"
       gradientUnits="userSpaceOnUse">
      <stop
         stop-color="#fff"
         id="stop98" />
      <stop
         offset=".56"
         stop-color="#39E7FF"
         id="stop99" />
      <stop
         offset="1"
         stop-color="#0069FF"
         id="stop100" />
    </linearGradient>
    <linearGradient
       id="u"
       x1="724.5"
       x2="724.5"
       y1="884"
       y2="918.5"
       gradientUnits="userSpaceOnUse">
      <stop
         stop-color="#B5F6FF"
         id="stop101" />
      <stop
         offset=".7"
         stop-color="#000C79"
         id="stop102" />
      <stop
         offset="1"
         stop-color="#000C2A"
         id="stop103" />
    </linearGradient>
    <linearGradient
       id="v"
       x1="991.035"
       x2="991.035"
       y1="887.777"
       y2="911.821"
       gradientUnits="userSpaceOnUse">
      <stop
         offset=".06"
         stop-color="#000C79"
         id="stop104" />
      <stop
         offset="1"
         stop-color="#000C2A"
         id="stop105" />
    </linearGradient>
    <linearGradient
       id="y"
       x1="961.943"
       x2="1204.5"
       y1="791.935"
       y2="795"
       gradientUnits="userSpaceOnUse">
      <stop
         stop-color="#000C79"
         id="stop106" />
      <stop
         offset="1"
         stop-color="#000C2A"
         id="stop107" />
    </linearGradient>
    <linearGradient
       id="z"
       x1="1069.5"
       x2="1066"
       y1="793"
       y2="757"
       gradientUnits="userSpaceOnUse">
      <stop
         stop-color="#000C2A"
         id="stop108" />
      <stop
         offset=".611"
         stop-color="#000C79"
         id="stop109" />
      <stop
         offset="1"
         stop-color="#0069FF"
         id="stop110" />
    </linearGradient>
    <linearGradient
       id="A"
       x1="1063"
       x2="1062.5"
       y1="803"
       y2="792"
       gradientUnits="userSpaceOnUse">
      <stop
         stop-color="#000C79"
         id="stop111" />
      <stop
         offset="1"
         stop-color="#FF720E"
         id="stop112" />
    </linearGradient>
    <linearGradient
       id="B"
       x1="1054.69"
       x2="1050.7"
       y1="809.961"
       y2="761.035"
       gradientUnits="userSpaceOnUse">
      <stop
         stop-color="#000C79"
         id="stop113" />
      <stop
         offset=".535"
         stop-color="#0069FF"
         id="stop114" />
      <stop
         offset=".99"
         stop-color="#39E7FF"
         id="stop115" />
    </linearGradient>
    <filter
       id="r"
       width="47.711"
       height="20"
       x="404.484"
       y="881"
       color-interpolation-filters="sRGB"
       filterUnits="userSpaceOnUse">
      <feFlood
         flood-opacity="0"
         result="BackgroundImageFix"
         id="feFlood115" />
      <feColorMatrix
         in="SourceAlpha"
         result="hardAlpha"
         values="0 0 0 0 0 0 0 0 0 0 0 0 0 0 0 0 0 0 127 0"
         id="feColorMatrix115" />
      <feOffset
         id="feOffset115" />
      <feGaussianBlur
         stdDeviation="4"
         id="feGaussianBlur115" />
      <feColorMatrix
         values="0 0 0 0 1 0 0 0 0 0.227451 0 0 0 0 0.180392 0 0 0 1 0"
         id="feColorMatrix116" />
      <feBlend
         in2="BackgroundImageFix"
         result="effect1_dropShadow_9221_1299"
         id="feBlend116" />
      <feBlend
         in="SourceGraphic"
         in2="effect1_dropShadow_9221_1299"
         result="shape"
         id="feBlend117" />
    </filter>
    <filter
       id="s"
       width="47.711"
       height="20"
       x="478.102"
       y="893"
       color-interpolation-filters="sRGB"
       filterUnits="userSpaceOnUse">
      <feFlood
         flood-opacity="0"
         result="BackgroundImageFix"
         id="feFlood117" />
      <feColorMatrix
         in="SourceAlpha"
         result="hardAlpha"
         values="0 0 0 0 0 0 0 0 0 0 0 0 0 0 0 0 0 0 127 0"
         id="feColorMatrix117" />
      <feOffset
         id="feOffset117" />
      <feGaussianBlur
         stdDeviation="4"
         id="feGaussianBlur117" />
      <feColorMatrix
         values="0 0 0 0 1 0 0 0 0 0.227451 0 0 0 0 0.180392 0 0 0 1 0"
         id="feColorMatrix118" />
      <feBlend
         in2="BackgroundImageFix"
         result="effect1_dropShadow_9221_1299"
         id="feBlend118" />
      <feBlend
         in="SourceGraphic"
         in2="effect1_dropShadow_9221_1299"
         result="shape"
         id="feBlend119" />
    </filter>
    <filter
       id="w"
       width="47.711"
       height="20"
       x="975.156"
       y="880.998"
       color-interpolation-filters="sRGB"
       filterUnits="userSpaceOnUse">
      <feFlood
         flood-opacity="0"
         result="BackgroundImageFix"
         id="feFlood119" />
      <feColorMatrix
         in="SourceAlpha"
         result="hardAlpha"
         values="0 0 0 0 0 0 0 0 0 0 0 0 0 0 0 0 0 0 127 0"
         id="feColorMatrix119" />
      <feOffset
         id="feOffset119" />
      <feGaussianBlur
         stdDeviation="4"
         id="feGaussianBlur119" />
      <feColorMatrix
         values="0 0 0 0 1 0 0 0 0 0.227451 0 0 0 0 0.180392 0 0 0 1 0"
         id="feColorMatrix120" />
      <feBlend
         in2="BackgroundImageFix"
         result="effect1_dropShadow_9221_1299"
         id="feBlend120" />
      <feBlend
         in="SourceGraphic"
         in2="effect1_dropShadow_9221_1299"
         result="shape"
         id="feBlend121" />
    </filter>
    <filter
       id="x"
       width="47.711"
       height="20"
       x="1053"
       y="892.998"
       color-interpolation-filters="sRGB"
       filterUnits="userSpaceOnUse">
      <feFlood
         flood-opacity="0"
         result="BackgroundImageFix"
         id="feFlood121" />
      <feColorMatrix
         in="SourceAlpha"
         result="hardAlpha"
         values="0 0 0 0 0 0 0 0 0 0 0 0 0 0 0 0 0 0 127 0"
         id="feColorMatrix121" />
      <feOffset
         id="feOffset121" />
      <feGaussianBlur
         stdDeviation="4"
         id="feGaussianBlur121" />
      <feColorMatrix
         values="0 0 0 0 1 0 0 0 0 0.227451 0 0 0 0 0.180392 0 0 0 1 0"
         id="feColorMatrix122" />
      <feBlend
         in2="BackgroundImageFix"
         result="effect1_dropShadow_9221_1299"
         id="feBlend122" />
      <feBlend
         in="SourceGraphic"
         in2="effect1_dropShadow_9221_1299"
         result="shape"
         id="feBlend123" />
    </filter>
    <radialGradient
       id="b"
       cx="0"
       cy="0"
       r="1"
       gradientTransform="matrix(0 925.5 -1805.74 0 723 8)"
       gradientUnits="userSpaceOnUse">
      <stop
         stop-color="#000C79"
         id="stop123" />
      <stop
         offset="1"
         stop-color="#000C2A"
         id="stop124" />
    </radialGradient>
    <radialGradient
       id="c"
       cx="0"
       cy="0"
       r="1"
       gradientTransform="matrix(0 -484 1935.59 0 694.5 483.5)"
       gradientUnits="userSpaceOnUse">
      <stop
         stop-color="#13D37F"
         id="stop125" />
      <stop
         offset="1"
         stop-color="#13D37F"
         stop-opacity="0"
         id="stop126" />
    </radialGradient>
    <radialGradient
       id="n"
       cx="0"
       cy="0"
       r="1"
       gradientTransform="matrix(1.29335 17.4706 -66.93423 4.95516 601.82 806.647)"
       gradientUnits="userSpaceOnUse">
      <stop
         stop-color="#FFC001"
         id="stop127" />
      <stop
         offset="1"
         stop-color="#FFC001"
         stop-opacity="0"
         id="stop128" />
    </radialGradient>
    <clipPath
       id="a">
      <path
         fill="#fff"
         d="M0 0h1440v931H0z"
         id="path128" />
    </clipPath>
    <clipPath
       id="i">
      <path
         fill="#fff"
         d="M823 780h74v52h-74z"
         id="path129" />
    </clipPath>
    <radialGradient
       id="s-6"
       cx="0"
       cy="0"
       r="1"
       gradientTransform="matrix(-18.277544,17.051244,-16.332306,-17.506901,909.057,594.42035)"
       gradientUnits="userSpaceOnUse">
      <stop
         stop-color="#0069FF"
         id="stop86-7" />
      <stop
         offset="1"
         stop-color="#000C79"
         id="stop87-8" />
    </radialGradient>
  </defs>
</svg>
