<?xml version="1.0" encoding="UTF-8" standalone="no"?>
<svg
   width="1920"
   height="2378"
   fill="none"
   version="1.1"
   id="svg89"
   sodipodi:docname="scrollable-background-2.svg"
   inkscape:version="1.4 (e7c3feb1, 2024-10-09)"
   xmlns:inkscape="http://www.inkscape.org/namespaces/inkscape"
   xmlns:sodipodi="http://sodipodi.sourceforge.net/DTD/sodipodi-0.dtd"
   xmlns="http://www.w3.org/2000/svg"
   xmlns:svg="http://www.w3.org/2000/svg">
  <sodipodi:namedview
     id="namedview89"
     pagecolor="#ffffff"
     bordercolor="#000000"
     borderopacity="0.25"
     inkscape:showpageshadow="2"
     inkscape:pageopacity="0.0"
     inkscape:pagecheckerboard="0"
     inkscape:deskcolor="#d1d1d1"
     inkscape:zoom="0.45321246"
     inkscape:cx="1288.5789"
     inkscape:cy="593.54061"
     inkscape:window-width="1728"
     inkscape:window-height="943"
     inkscape:window-x="0"
     inkscape:window-y="38"
     inkscape:window-maximized="0"
     inkscape:current-layer="g33" />
  <g
     clip-path="url(#a)"
     id="g33">
    <path
       fill="url(#b)"
       d="M633.5 233.985s384-360.485 715.5-66.884c0 0 264.95-284.989 539 66.883z"
       id="path1" />
    <path
       fill="url(#c)"
       d="M73 322.65s214.25-238.79 457.07-41.69c0 0 224.68-177.599 457.07 41.68z"
       id="path2" />
    <path
       fill="url(#d)"
       d="M1938 206.278v515.22s-240.82-330.809-897.5-51.999c-54.12 22.98-279.735 38.399-325.945 35.359 0 0 188.2-230.869 146.945-62.359 0 0 334.87-446.741 255-171 0 0 373.57-515.07 347.5-136 0 0 410.35-454 474-129.221"
       id="path3" />
    <path
       fill="url(#e)"
       d="M2031 321.497V643H925s29.905-90.041 130.45-49.297c0 0 58.05-191.571 231.08-106.706 0 0 102.91-180.523 314.92-84.865 0 0 115.59-183.956 429.55-80.635"
       id="path4" />
    <path
       fill="url(#f)"
       d="M640.312 394.719c61.028 0 110.501-49.473 110.501-110.5s-49.473-110.5-110.501-110.5c-61.027 0-110.5 49.472-110.5 110.5s49.473 110.5 110.5 110.5"
       id="path5" />
    <g
       filter="url(#g)"
       id="g6">
      <path
         fill="#fff"
         d="M536.633 245.16c9.2-32.11 35.33-58.63 66.73-69.91 55.2-20.39 118.98 7.25 141.5 61.65 11.68 27.19 11.69 59.67-.87 86.39l-.56-.21c5.06-13.51 7.46-28.01 6.96-42.42-.89-28.85-13.72-57.06-34.86-76.68-43.58-41.26-114.74-39.15-155.57 4.93-9.89 10.49-17.65 22.97-22.76 36.46l-.56-.21z"
         id="path6" />
    </g>
    <path
       fill="url(#h)"
       d="M-7.497 775.503c54.502-493.5 873.562-349.231 873.562-349.231s-141.563-147.769-306.563-62.769c0 0 247.504-226.501-274.996-64.001 0 0 314.497-326-171.505-241.5C-373 142.502-7.497 775.503-7.497 775.503"
       id="path7" />
    <path
       fill="#ff720e"
       d="m 1548.4071,225.72363 c 0,0 -22.47,0 -28.6,16.85 0,0 10.2,-6.41 21.17,-5.61 8.69,-4.01 7.42,-11.24 7.42,-11.24 z"
       id="path19" />
    <path
       fill="#000c79"
       d="m 1586.1971,214.49463 c 0,0 -24.51,-5.62 -37.79,11.23 0,0 1.27,7.23 -7.42,11.24 1.79,0.13 3.59,0.44 5.38,1.02 3.41,1.09 13.16,6.15 28.11,11.05 13.74,-13.64 11.72,-34.54 11.72,-34.54 m 94.32,-79.478 c 18.26,-3.277 24.64,-13.465 24.64,-13.465 0,0 -62.03,-0.001 -79.33,18.148 -17.31,18.149 49.33,34.352 -19.67,67.352 0,0 52.5,-0.607 71.11,8.5 25.89,-5.5 11.08,-27.669 4.89,-41.5 -4.09,-9.147 14.75,-18.661 9.6,-19.369 -5.14,-0.709 -11.24,2.224 -11.24,2.224 0,0 22.47,-17.208 14.98,-20.485 -7.48,-3.278 -14.98,-1.405 -14.98,-1.405 m -71.13,200.215 c 15.15,12.792 12.27,24.322 12.27,24.322 0,0 -45.17,-28.464 -51.51,-54.499 -6.33,-26.035 40.51,-28.001 20.51,-48.5 0,0 54.9,-1.529 77,-0.002 9.13,23.174 -23.83,31.989 -33,42.5 -7.04,8.062 -0.86,32.595 -6,30.5 -5.14,-2.095 -9.5,-9.5 -9.5,-9.5 0,0 13.53,22.86 4.85,21.891 -8.68,-0.969 -14.62,-6.712 -14.62,-6.712"
       id="path20" />
    <path
       fill="url(#q)"
       d="m 1586.1971,214.49463 c 44.96,-21.941 89.23,-2.207 108.76,7.661 l 44.68,-13.791 -0.02,0.01 c 0,0 1.83,1.05 4.19,3.38 -7.15,2.299 -12.15,6.299 -12.15,6.299 0,0 8.5,-3 14,-3.5 12.5,17 5.7,41 5.5,41.5 -0.2,0.5 -17,-4.789 -17,-4.789 7.5,6 15.18,7.97 15.18,7.97 -3.6,7.99 -8.01,12.34 -8.01,12.34 l -46.37,-24.021 c -77.29,38.788 -120.48,1.481 -120.48,1.481 13.75,-13.64 11.72,-34.54 11.72,-34.54"
       id="path21"
       style="fill:url(#q)" />
    <path
       fill="#000c79"
       d="m 1414.1271,128.54063 c -0.63,-0.637 -10.04,-1.458 -10.04,-1.458 0,0 6.84,-1.23 6.23,-1.625 -2.21,-1.458 -3.92,-2.126 -3.92,-2.126 0,0 -26.7,3.751 -38.8,3.021 -12.1,-0.73 -34.04,-9.872 -34.04,-9.872 0,0 11.6,1.862 17.73,1.862 0,-12.15 35.22,-27.756999 10.98,-27.756999 21.97,-12.836 30.29,-23.467998 9.11,-23.467998 28.67,-0.759 28.67,-9.355 28.67,-9.355 0,0 -42.07,-9.477 -66.11,4.132 -11.7,6.607 -24.98,21.976998 -41.97,47.827997 -10.15,0.896 -19.2,-0.805 -28.58,3.615 0,0 -20.891,-4.8 -32.208,9.614 0,0 -15.945,0.775 -24.372,14.414 0,0 8.699,-5.483 18.049,-4.8 1.528,0.107 3.056,0.38 4.584,0.866 2.904,0.942 11.21,5.255 23.967,9.447 6.65,2.187 9.26,4.359 18.48,14.399 0.26,8.536 0.25,17.363 -12.89,31.692 -6.35,6.934 -8.32,21.264 -2.55,40.696 5.52,13.336 11.09,21.134 18.55,28.949 7.45,7.816 -5.41,-35.471 21.83,-48.381 27.23,-12.911 29.5,-45.566 38.57,-47.844 0,0 -8.32,-6.835 -9.07,-8.354 31.01,11.392 29.98,-3.607 39.76,-3.441 9.77,0.166 42.04,12.363 42.05,12.348 0.38,-0.258 1.61,-1.154 3.15,-2.643 l 0.02,-0.015 c 0.6,-0.577 1.25,-1.26 1.9,-2.005 0,-0.015 0.03,-0.03 0.05,-0.045 0.75,-0.866 1.52,-1.853 2.27,-2.947 l -7.43,-4.693 c 0,0 9.86,0.228 10.13,-0.471 1,-2.551 1.62,-5.452 1.58,-8.688 -0.09,-5.786 -2.74,-10.024 -5.66,-12.925 z"
       id="path22" />
    <path
       fill="url(#i)"
       d="M-81.936 629C-141.524 200.668 478.9 226.187 162.106 482.595c0 0 154.009-73.266 260.894 0 0 0-314.508 22.376-504.936 146.405"
       id="path8" />
    <path
       fill="url(#j)"
       d="M858.281 670.121c7.87-2.759 13.314-4.668 15.217-5.121C1646 345.5 1928.5 594.5 1928.5 594.5l-.99 104.362c-30.36 12.955-404.57 166.317-911.01 78.637-57.554-9.965-245.429-56.174-310.938-73.134v-.426c32.119 8.466 117.173-21.355 152.719-33.818"
       id="path9" />
    <path
       fill="url(#k)"
       d="M1284.02 703.453c44.06-3.26 94.97-36.57 125.64-67.32 13.75-14.31 28.5-31.61 32.7-51.26 5.49-31.91-37.42-22.99-55.57-16.45 0 0 34.71-21.92 54.07-10.99 9.83 6.18 12.66 18.49 9.95 29.15-13.93 54.21-112.22 116.48-166.79 116.87"
       id="path10" />
    <path
       fill="url(#l)"
       d="M1106.03 703.451c16.43-1.68 31.95-7.65 46.63-14.86 14.61-7.29 28.36-16.15 41.26-25.95l6.69 9.96c-28.79 16.37-60.99 30.85-94.58 30.85"
       id="path11" />
    <path
       fill="url(#m)"
       d="M1466.05 704.032c41.62-34.85 81.64-75.84 102.49-126.66 5.16-13.83 9.11-29.83 4.43-44.03-13.64-36.87-95.97-22.34-139.97 9.66l-8.02-5.97c34.33-19.22 117.72-55.15 148.47-17.32 13.17 17.48 7.58 41.21-.04 59.62-22.72 50.84-64.25 90.87-107.37 124.71z"
       id="path12" />
    <path
       fill="#fff"
       d="M1377.56 514.891c9.3-40.32-30.1-33.72-67 .75-3.97 3.71-7.9 7.79-11.76 12.1-23.21 4.44-47.05 9.56-71.52 15.43 10.69-38.92-33.47-23.32-70.43 8.22-5.48 4.68-10.8 9.72-15.87 14.9-19.18 5.67-57.66 17.78-57.66 17.78-8.33-38.56-44.99-5.93-72.71 25.95C992 624 954 622 920 638c-13.57 5.76-9.5 12.5-45.648 26.461 23.9 11.74 75.37 30.18 138.738 12.55 107.92-30.03 98.41 34.42 231.32 6.13 137.94-29.37 161.59-179.79 290-179.79C1554 504.502 1712 493.5 1880.5 564.5c-223.83-111.328-406.85-70.193-480-52.498 0 0-22.94 2.889-22.96 2.899z"
       id="path13" />
    <path
       fill="url(#n)"
       d="m1083.34 584.062-77.16 53.44 106.22-62.51z"
       id="path14" />
    <path
       fill="url(#o)"
       d="m1227.29 543.163-86 63.09 111.02-68.87z"
       id="path15" />
    <path
       fill="url(#p)"
       d="m1377.56 514.893-103.25 69.94 125.09-72.7z"
       id="path16" />
    <path
       fill="#E9F4EF"
       d="M1271.5 666.998c-132.91 28.29-121-31.999-247.5 7.001-51.76 17.33-107.252-5.39-134.502-16-11.5 2-8.5 3.5-15.117 6.452-11.886 6.548 77.249 32.678 140.619 15.048 107.92-30.03 96.53 31.922 229.44 3.632C1408.5 638.998 1395 517.498 1555.5 503.499c-30.44-1.841-69-3.934-110.5 23.5s-91.78 121.627-173.5 139.999"
       id="path17" />
    <path
       fill="#fff"
       d="M1453.03 439.982c5.5-5.407 7.76-12.017 5.06-14.766-2.71-2.748-9.35-.592-14.85 4.814-5.5 5.407-7.76 12.018-5.06 14.766 2.71 2.748 9.35.593 14.85-4.814m-127.88 46.599c4.07-3.729 5.86-8.399 4-10.43-1.87-2.031-6.67-.655-10.74 3.074s-5.85 8.398-3.99 10.429 6.67.655 10.73-3.073m-319.48 114.755c3.88-4.221 5.06-9.448 2.63-11.676-2.42-2.227-7.53-.61-11.41 3.611-3.878 4.221-5.058 9.449-2.634 11.676s7.534.61 11.414-3.611m-4.89-20.236a4.22 4.22 0 1 0 0-8.44 4.22 4.22 0 0 0 0 8.44m448.6-122.553c-16.09 5.517-34.38 38.293-34.38 38.293 20.83-12.402 39.71-13.366 47.77-17.194 8.06-3.829 9.51-10.076 7.23-15.163s-10.33-9.459-20.62-5.936"
       id="path18" />
    <path
       fill="#000c2a"
       d="m 503.105,408.773 c 3.193,3.244 8.818,8.34 -2.755,23.61 L 495.793,474.817 456.5,471 c 0,0 -37.563,-20.803 1.224,-45.077 13.887,-8.691 -3.806,-25.187 -14.123,-33.201 -5.816,-5.037 1.403,-2.95 1.403,-2.95 0,0 -10.84,-5.424 -12.206,-7.823 -1.713,-3.011 5.456,-0.343 5.456,-0.343 0,0 -6.763,-2.816 -8.9,-5.275 -4.332,-4.158 4.032,-1.982 4.032,-1.982 -6.444,-3.342 -10.93,-9.773 -7.017,-8.018 30.901,13.856 72.694,38.338 76.736,42.442"
       id="path23" />
    <path
       fill="#000c79"
       d="m 530.525,401.631 c 2.638,3.709 4.035,12.874 -10.025,33.369 -14.06,20.495 -3,36.5 -3,36.5 l -56.006,5 c 0,0 -25.994,-24 19.506,-60.5 12.779,-10.251 2.236,-30.107 -6.679,-39.656 -4.944,-5.895 1.853,-2.69 1.853,-2.69 0,0 -9.842,-7.075 -10.81,-9.66 -1.214,-3.245 5.442,0.526 5.442,0.526 0,0 -6.231,-3.853 -7.951,-6.619 -3.618,-4.792 4.295,-1.318 4.295,-1.318 -5.832,-4.321 -9.241,-11.382 -5.656,-9.029 28.312,18.582 65.691,49.384 69.031,54.077"
       id="path24" />
    <path
       fill="#000c2a"
       d="m 417.174,494.951 c 17.337,10e-4 27.044,-6.243 27.044,-6.243 l 22.891,-9.71 -1.149,6.837 -21.738,4.953 c 0,0 -4.9,5.141 -11.789,6.242 -6.889,1.101 -32.597,-2.08 -15.259,-2.079"
       id="path25" />
    <path
       fill="url(#r)"
       fill-rule="evenodd"
       d="m 535.682,460.143 c 7.83,2.94 14.06,13.76 14.06,13.76 v 5.33 c -0.547,-0.62 -2.664,-1.437 -9.742,-1.733 -5.234,-0.219 -10.032,3.256 -15.836,7.458 -7.503,5.434 -16.686,12.084 -30.664,13.544 -7.64,0.8 -16.876,-2.718 -25.882,-6.148 a 524,524 0 0 0 -4.024,-1.52 l -17.372,3.958 c 0,0 -4.9,5.14 -11.789,6.242 -6.888,1.101 -32.597,-2.08 -15.259,-2.079 17.337,0.001 27.044,-6.243 27.044,-6.243 l 10.218,-4.335 c -3.724,-1.126 -7.254,-1.875 -10.436,-1.875 -13.5,0 -27,4.5 -27,4.5 -4.653,-3.324 -15.199,-7.532 -25.5,-11.187 0,0 3.5,-1.813 11.5,-1.813 -7.22,-1.083 -12.154,-0.446 -14.672,-0.121 -0.97,0.125 -1.582,0.204 -1.828,0.121 -10.26,-3.465 -20.5,-6.5 -20.5,-6.5 22.059,-1.102 38.505,2.024 49.783,4.167 5.413,1.029 9.636,1.831 12.717,1.831 5.57,0 7.877,-1.22 12.056,-3.428 2.948,-1.558 6.829,-3.608 13.444,-6.07 0,0 17.442,19.491 58.772,-5.819 10.18,-3.35 15.67,-4.01 20.91,-2.04 M 549.742,480 v -0.767 c 0.38,0.431 0,0.767 0,0.767"
       clip-rule="evenodd"
       id="path26"
       style="fill:url(#r)" />
    <path
       fill="#ff720e"
       d="M 549.748,473.898 C 549,475.996 540,477.496 540,477.496 c 16.219,5.648 24.018,11.972 24.018,11.972 0.479,-8.472 -14.27,-15.57 -14.27,-15.57"
       id="path27" />
    <path
       fill="#000c2a"
       d="m 565.151,569.716 c 1.77,1.057 4.819,2.647 1.493,10.663 l 2.856,19.119 -23.5,0.5 c 0,0 -13,-2.5 1.223,-17.575 5.093,-5.397 -4.549,-10.603 -9.987,-12.936 -3.125,-1.542 0.278,-1.453 0.278,-1.453 0,0 -5.372,-1.138 -6.245,-2.033 -1.095,-1.123 2.352,-0.774 2.352,-0.774 0,0 -3.286,-0.461 -4.504,-1.294 -2.374,-1.327 1.54,-1.33 1.54,-1.33 -3.206,-0.728 -5.907,-3.033 -3.992,-2.711 15.128,2.538 36.245,8.488 38.486,9.824"
       id="path28" />
    <path
       fill="#000c79"
       d="m 606,598 c 0,0 7.28,2 9,3 1.72,1 2,2.5 2,2.5 -3.646,-2.056 -12.5,-0.5 -12.5,-0.5 0,0 -5.504,12.467 -28.004,11.5 -11.949,-0.513 -11.996,-8 -24.752,-8.316 -8.244,0 -17.737,9.057 -19.744,10.007 -2.893,-1.132 -8.884,-4.986 -13,-10.691 0,0 2.5,-1 5.5,-1.5 -2.5,0 -6.11,0.5 -6.11,0.5 A 26.5,26.5 0 0 1 516,599.691 c 8.038,0.383 26.749,0.508 33.875,-0.592 C 557,598 558.602,596.623 562.496,595 l -9.721,0.374 c 0,0 -6.18,-8.341 9.32,-21.841 8.037,-7 -3.707,-16.28 -10.758,-21 -4,-3 0.758,-2 0.758,-2 0,0 -7.258,-3 -8.258,-4.5 -1.254,-1.882 3.5,-0.5 3.5,-0.5 0,0 -4.499,-1.5 -5.999,-3 -3,-2.5 2.499,-1.5 2.499,-1.5 -4.319,-1.86 -7.532,-5.839 -4.922,-4.889 20.61,7.5 48.77,21.4 51.58,23.88 l 0.146,0.129 c 2.237,1.966 5.81,5.108 -0.746,15.451 -7.8,12.307 -0.86,16.88 -0.86,16.88 C 601,590 606,598 606,598"
       id="path29" />
  </g>
  <defs
     id="defs89">
    <linearGradient
       id="b"
       x1="1169"
       x2="1162.37"
       y1="-26"
       y2="157.088"
       gradientUnits="userSpaceOnUse">
      <stop
         stop-color="#fff"
         id="stop33" />
      <stop
         offset="1"
         stop-color="#39E7FF"
         stop-opacity="0"
         id="stop34" />
    </linearGradient>
    <linearGradient
       id="c"
       x1="457.5"
       x2="458.38"
       y1="100"
       y2="272.106"
       gradientUnits="userSpaceOnUse">
      <stop
         stop-color="#fff"
         id="stop35" />
      <stop
         offset="1"
         stop-color="#39E7FF"
         stop-opacity="0"
         id="stop36" />
    </linearGradient>
    <linearGradient
       id="d"
       x1="1676"
       x2="1694.5"
       y1="45.498"
       y2="422.998"
       gradientUnits="userSpaceOnUse">
      <stop
         stop-color="#fff"
         id="stop37" />
      <stop
         offset="1"
         stop-color="#39E7FF"
         stop-opacity="0"
         id="stop38" />
    </linearGradient>
    <linearGradient
       id="e"
       x1="1362.5"
       x2="1390"
       y1="368"
       y2="536"
       gradientUnits="userSpaceOnUse">
      <stop
         stop-color="#fff"
         id="stop39" />
      <stop
         offset="1"
         stop-color="#39E7FF"
         stop-opacity="0"
         id="stop40" />
    </linearGradient>
    <linearGradient
       id="f"
       x1="654.5"
       x2="717.5"
       y1="300.998"
       y2="196.998"
       gradientUnits="userSpaceOnUse">
      <stop
         stop-color="#FFC001"
         id="stop41" />
      <stop
         offset="1"
         stop-color="#fff"
         id="stop42" />
    </linearGradient>
    <linearGradient
       id="h"
       x1="463"
       x2="284.5"
       y1="264.002"
       y2="466.502"
       gradientUnits="userSpaceOnUse">
      <stop
         stop-color="#fff"
         id="stop43" />
      <stop
         offset="1"
         stop-color="#39E7FF"
         stop-opacity="0"
         id="stop44" />
    </linearGradient>
    <linearGradient
       id="i"
       x1="193"
       x2="120"
       y1="279"
       y2="494"
       gradientUnits="userSpaceOnUse">
      <stop
         stop-color="#fff"
         id="stop45" />
      <stop
         offset="1"
         stop-color="#39E7FF"
         stop-opacity="0"
         id="stop46" />
    </linearGradient>
    <linearGradient
       id="j"
       x1="961.654"
       x2="961.654"
       y1="1374.88"
       y2="467.08"
       gradientUnits="userSpaceOnUse">
      <stop
         offset=".05"
         stop-color="#00BFFF"
         stop-opacity="0"
         id="stop47" />
      <stop
         offset=".11"
         stop-color="#00AEFF"
         stop-opacity=".19"
         id="stop48" />
      <stop
         offset=".2"
         stop-color="#09F"
         stop-opacity=".44"
         id="stop49" />
      <stop
         offset=".28"
         stop-color="#08F"
         stop-opacity=".64"
         id="stop50" />
      <stop
         offset=".35"
         stop-color="#007AFF"
         stop-opacity=".79"
         id="stop51" />
      <stop
         offset=".42"
         stop-color="#0070FF"
         stop-opacity=".91"
         id="stop52" />
      <stop
         offset=".48"
         stop-color="#006BFF"
         stop-opacity=".98"
         id="stop53" />
      <stop
         offset=".52"
         stop-color="#0069FF"
         id="stop54" />
      <stop
         offset=".56"
         stop-color="#0063F6"
         id="stop55" />
      <stop
         offset=".62"
         stop-color="#0055DE"
         id="stop56" />
      <stop
         offset=".69"
         stop-color="#003EB9"
         id="stop57" />
      <stop
         offset=".74"
         stop-color="#002C9B"
         id="stop58" />
      <stop
         offset=".79"
         stop-color="#00278B"
         id="stop59" />
      <stop
         offset=".88"
         stop-color="#021C61"
         id="stop60" />
      <stop
         offset="1"
         stop-color="#050B24"
         id="stop61" />
    </linearGradient>
    <linearGradient
       id="k"
       x1="1367.72"
       x2="1367.81"
       y1="562.472"
       y2="703.453"
       gradientUnits="userSpaceOnUse">
      <stop
         stop-color="#0069FF"
         stop-opacity="0"
         id="stop62" />
      <stop
         offset="1"
         stop-color="#0069FF"
         id="stop63" />
    </linearGradient>
    <linearGradient
       id="l"
       x1="1153"
       x2="1153"
       y1="689.498"
       y2="708.998"
       gradientUnits="userSpaceOnUse">
      <stop
         stop-color="#0069FF"
         stop-opacity="0"
         id="stop64" />
      <stop
         offset="1"
         stop-color="#0069FF"
         id="stop65" />
    </linearGradient>
    <linearGradient
       id="m"
       x1="1503"
       x2="1503.18"
       y1="514"
       y2="704.042"
       gradientUnits="userSpaceOnUse">
      <stop
         stop-color="#0069FF"
         stop-opacity="0"
         id="stop66" />
      <stop
         offset="1"
         stop-color="#0069FF"
         id="stop67" />
    </linearGradient>
    <linearGradient
       id="n"
       x1="1130.21"
       x2="1002.29"
       y1="558.552"
       y2="641.532"
       gradientUnits="userSpaceOnUse">
      <stop
         offset=".13"
         stop-color="#CFEAF3"
         id="stop68" />
      <stop
         offset=".31"
         stop-color="#AAE4F8"
         stop-opacity=".57"
         id="stop69" />
      <stop
         offset=".48"
         stop-color="#88DFFD"
         stop-opacity=".16"
         id="stop70" />
      <stop
         offset=".56"
         stop-color="#7BDEFF"
         stop-opacity="0"
         id="stop71" />
    </linearGradient>
    <linearGradient
       id="o"
       x1="1270.52"
       x2="1137.62"
       y1="518.963"
       y2="611.143"
       gradientUnits="userSpaceOnUse">
      <stop
         offset=".13"
         stop-color="#CFEAF3"
         id="stop72" />
      <stop
         offset=".39"
         stop-color="#AAE4F8"
         stop-opacity=".57"
         id="stop73" />
      <stop
         offset=".65"
         stop-color="#88DFFD"
         stop-opacity=".16"
         id="stop74" />
      <stop
         offset=".76"
         stop-color="#7BDEFF"
         stop-opacity="0"
         id="stop75" />
    </linearGradient>
    <linearGradient
       id="p"
       x1="1419.24"
       x2="1272.33"
       y1="491.343"
       y2="593.233"
       gradientUnits="userSpaceOnUse">
      <stop
         offset=".13"
         stop-color="#CFEAF3"
         id="stop76" />
      <stop
         offset=".38"
         stop-color="#AAE4F8"
         stop-opacity=".57"
         id="stop77" />
      <stop
         offset=".63"
         stop-color="#88DFFD"
         stop-opacity=".16"
         id="stop78" />
      <stop
         offset=".74"
         stop-color="#7BDEFF"
         stop-opacity="0"
         id="stop79" />
    </linearGradient>
    <linearGradient
       id="q"
       x1="1384.5"
       x2="1346.5"
       y1="321.002"
       y2="280.002"
       gradientUnits="userSpaceOnUse"
       gradientTransform="translate(248.80709,-75.448367)">
      <stop
         stop-color="#F2EBE3"
         id="stop80" />
      <stop
         offset="1"
         stop-color="#fff"
         id="stop81" />
    </linearGradient>
    <linearGradient
       id="r"
       x1="522"
       x2="595.5"
       y1="476.002"
       y2="480.002"
       gradientUnits="userSpaceOnUse"
       gradientTransform="translate(-42)">
      <stop
         stop-color="#F2EBE3"
         id="stop82" />
      <stop
         offset="1"
         stop-color="#fff"
         id="stop83" />
    </linearGradient>
    <linearGradient
       id="t"
       x1="689"
       x2="1231"
       y1="604.406"
       y2="604.406"
       gradientUnits="userSpaceOnUse">
      <stop
         stop-color="#13D37F"
         id="stop84" />
      <stop
         offset="1"
         stop-color="#ADD924"
         id="stop85" />
    </linearGradient>
    <radialGradient
       id="s"
       cx="0"
       cy="0"
       r="1"
       gradientTransform="rotate(136.988 508.886 416.55)scale(128.761 123.332)"
       gradientUnits="userSpaceOnUse">
      <stop
         stop-color="#0069FF"
         id="stop86" />
      <stop
         offset="1"
         stop-color="#000C79"
         id="stop87" />
    </radialGradient>
    <clipPath
       id="a">
      <path
         fill="#fff"
         d="M0 0h1920v2378H0z"
         id="path87" />
    </clipPath>
    <filter
       id="g"
       width="252.891"
       height="190.75"
       x="518.633"
       y="150.539"
       color-interpolation-filters="sRGB"
       filterUnits="userSpaceOnUse">
      <feFlood
         flood-opacity="0"
         result="BackgroundImageFix"
         id="feFlood87" />
      <feColorMatrix
         in="SourceAlpha"
         result="hardAlpha"
         values="0 0 0 0 0 0 0 0 0 0 0 0 0 0 0 0 0 0 127 0"
         id="feColorMatrix87" />
      <feOffset
         id="feOffset87" />
      <feGaussianBlur
         stdDeviation="9"
         id="feGaussianBlur87" />
      <feColorMatrix
         values="0 0 0 0 1 0 0 0 0 1 0 0 0 0 1 0 0 0 0.9 0"
         id="feColorMatrix88" />
      <feBlend
         in2="BackgroundImageFix"
         result="effect1_dropShadow_9386_2430"
         id="feBlend88" />
      <feBlend
         in="SourceGraphic"
         in2="effect1_dropShadow_9386_2430"
         result="shape"
         id="feBlend89" />
    </filter>
  </defs>
</svg>
